<svg width="49" height="48" viewBox="0 0 49 48" fill="none" xmlns="http://www.w3.org/2000/svg">
<path d="M11.349 15.3273C11.5482 15.3273 11.7112 15.1644 11.7112 14.9652V13.0458C11.7112 12.8466 11.5647 12.7552 11.3858 12.8427L10.1109 13.466C9.93197 13.5536 9.78558 13.7881 9.78558 13.9873V14.9651C9.78558 15.1643 9.94857 15.3272 10.1478 15.3272H11.349V15.3273Z" fill="#0CB8C0"/>
<path d="M13.0649 15.3274C13.2641 15.3274 13.4271 15.1644 13.4271 14.9652V10.8674C13.4271 10.6682 13.2847 10.5843 13.1105 10.681L11.8182 11.3984C11.644 11.495 11.5015 11.7371 11.5015 11.9362V14.9652C11.5015 15.1644 11.6644 15.3274 11.8636 15.3274H13.0649Z" fill="#068F8F"/>
<path d="M38.0525 15.3272C38.2517 15.3272 38.4147 15.1643 38.4147 14.9651V13.9873C38.4147 13.7881 38.2682 13.5536 38.0893 13.466L36.8144 12.8427C36.6354 12.7552 36.489 12.8466 36.489 13.0458V14.9652C36.489 15.1644 36.6519 15.3273 36.8511 15.3273L38.0525 15.3272Z" fill="#0CB8C0"/>
<path d="M36.3364 15.3273C36.5356 15.3273 36.6986 15.1644 36.6986 14.9652V11.9362C36.6986 11.7371 36.5561 11.495 36.3819 11.3983L35.0896 10.681C34.9154 10.5842 34.7729 10.6681 34.7729 10.8673V14.9652C34.7729 15.1644 34.9359 15.3273 35.1351 15.3273H36.3364Z" fill="#068F8F"/>
<path d="M39.201 16.445H8.99896V40.9651H39.201V16.445Z" fill="#068F8F"/>
<path opacity="0.1" d="M10.4129 16.4449H8.99896V40.965H10.4129V16.4449Z" fill="black"/>
<path d="M18.5854 11.438H17.1651V14.9867H18.5854V11.438Z" fill="#D0D5D5"/>
<path d="M31.0349 11.4381H29.6146V14.9868H31.0349V11.4381Z" fill="#D0D5D5"/>
<path d="M39.8281 16.3747C39.8281 16.5738 39.6651 16.7368 39.466 16.7368H8.73419C8.53499 16.7368 8.37201 16.5738 8.37201 16.3747V15.1732C8.37201 14.974 8.53499 14.811 8.73419 14.811H39.4659C39.6651 14.811 39.8281 14.974 39.8281 15.1732L39.8281 16.3747Z" fill="#EBB272"/>
<path opacity="0.1" d="M9.97535 16.3747V15.1732C9.97535 14.974 10.1383 14.811 10.3375 14.811H8.73419C8.53499 14.811 8.37201 14.974 8.37201 15.1732V16.3747C8.37201 16.5738 8.53499 16.7368 8.73419 16.7368H10.3375C10.1383 16.7368 9.97535 16.5738 9.97535 16.3747Z" fill="black"/>
<path d="M20.6706 34.9597C20.6706 33.724 21.3236 32.6412 22.3028 32.037H8.73419C8.53499 32.037 8.37201 32.2 8.37201 32.3992V34.7273C8.37201 34.9265 8.53499 35.0894 8.73419 35.0894H20.6705V34.9597H20.6706Z" fill="#FECF05"/>
<path d="M39.466 32.037H25.8974C26.8766 32.6413 27.5297 33.724 27.5297 34.9597V35.0895H39.466C39.6652 35.0895 39.8282 34.9265 39.8282 34.7273V32.3992C39.8282 32.2 39.6652 32.037 39.466 32.037Z" fill="#FECF05"/>
<path d="M33.058 11.6832C32.9969 12.0769 32.621 12.399 32.2226 12.399H15.9774C15.579 12.399 15.2031 12.0769 15.142 11.6832L14.3711 6.71578C14.31 6.32217 14.586 6 14.9843 6H33.2156C33.614 6 33.89 6.32217 33.8289 6.71578L33.058 11.6832Z" fill="#FECF05"/>
<path opacity="0.1" d="M16.2797 11.6832L15.5089 6.71578C15.4478 6.32217 15.7237 6 16.1221 6H14.9844C14.586 6 14.31 6.32217 14.3711 6.71578L15.142 11.6832C15.2031 12.0769 15.579 12.399 15.9774 12.399H17.1152C16.7168 12.399 16.3409 12.0769 16.2797 11.6832Z" fill="black"/>
<path d="M17.5237 8.15314C17.706 8.15314 17.8629 8.28997 17.8887 8.47144C17.9298 8.75979 18.1966 8.96103 18.4851 8.91919C18.7735 8.8782 18.9739 8.61115 18.9329 8.32287C18.8336 7.62481 18.2278 7.09845 17.5237 7.09845C16.7386 7.09845 16.1 7.73872 16.1 8.52586V9.61894C16.1 10.4061 16.7386 11.0466 17.5237 11.0466C18.1492 11.0466 18.7104 10.6269 18.8884 10.0262C18.9712 9.74691 18.8119 9.45343 18.5326 9.37074C18.2534 9.28805 17.96 9.44724 17.8772 9.72645C17.8309 9.88275 17.6855 9.99188 17.5237 9.99188C17.3202 9.99188 17.1547 9.82461 17.1547 9.61894V8.52586C17.1547 8.32034 17.3202 8.15314 17.5237 8.15314Z" fill="#A67C52"/>
<path d="M30.6764 7.09845C29.8914 7.09845 29.2527 7.73872 29.2527 8.52586V9.61894C29.2527 10.4061 29.8913 11.0466 30.6764 11.0466C31.4614 11.0466 32.1001 10.4062 32.1001 9.61894V8.52586C32.1 7.73879 31.4613 7.09845 30.6764 7.09845ZM31.0453 9.61894C31.0453 9.82461 30.8798 9.99188 30.6763 9.99188C30.4729 9.99188 30.3074 9.82461 30.3074 9.61894V8.52586C30.3074 8.32034 30.4728 8.15314 30.6763 8.15314C30.8798 8.15314 31.0453 8.32034 31.0453 8.52586V9.61894Z" fill="#A67C52"/>
<path d="M20.4726 7.09845C19.6877 7.09845 19.049 7.73872 19.049 8.52586V10.5192C19.049 10.8105 19.2851 11.0466 19.5764 11.0466C19.8676 11.0466 20.1037 10.8105 20.1037 10.5192V9.88908H20.8416V10.5192C20.8416 10.8105 21.0777 11.0466 21.369 11.0466C21.6602 11.0466 21.8963 10.8105 21.8963 10.5192V8.52586C21.8963 7.73879 21.2577 7.09845 20.4726 7.09845ZM20.1037 8.8344V8.52586C20.1037 8.32034 20.2692 8.15314 20.4726 8.15314C20.6761 8.15314 20.8416 8.32034 20.8416 8.52586V8.8344H20.1037Z" fill="#A67C52"/>
<path d="M25.4504 7.09845C25.1591 7.09845 24.923 7.33449 24.923 7.62579V10.5192C24.923 10.8105 25.1591 11.0465 25.4504 11.0465C25.7416 11.0465 25.9777 10.8105 25.9777 10.5192V7.62579C25.9777 7.33456 25.7416 7.09845 25.4504 7.09845Z" fill="#A67C52"/>
<path d="M23.6597 8.54502H23.0997C23.084 8.54502 23.0367 8.49988 23.0367 8.41775V8.27994C23.0367 8.19802 23.084 8.15295 23.0997 8.15295H23.9498C24.241 8.15295 24.4771 7.91692 24.4771 7.62561C24.4771 7.33431 24.241 7.09827 23.9498 7.09827H23.0997C22.4834 7.09827 21.982 7.62835 21.982 8.27994V8.41775C21.982 9.06948 22.4834 9.5997 23.0997 9.5997H23.6597C23.6753 9.5997 23.7227 9.64484 23.7227 9.7269V9.86464C23.7227 9.9467 23.6753 9.99177 23.6597 9.99177H22.6895C22.3982 9.99177 22.1621 10.2278 22.1621 10.5191C22.1621 10.8104 22.3982 11.0465 22.6895 11.0465H23.6597C24.2759 11.0465 24.7773 10.5163 24.7773 9.86464V9.7269C24.7774 9.07517 24.2759 8.54502 23.6597 8.54502Z" fill="#A67C52"/>
<path d="M27.667 7.09845C26.8821 7.09845 26.2434 7.73872 26.2434 8.52586V10.5192C26.2434 10.8105 26.4795 11.0466 26.7708 11.0466C27.062 11.0466 27.2981 10.8105 27.2981 10.5192V8.52586C27.2981 8.32034 27.4636 8.15314 27.667 8.15314C27.8706 8.15314 28.0361 8.32034 28.0361 8.52586V10.5192C28.0361 10.8105 28.2722 11.0466 28.5634 11.0466C28.8547 11.0466 29.0908 10.8105 29.0908 10.5192V8.52586C29.0908 7.73879 28.4521 7.09845 27.667 7.09845Z" fill="#A67C52"/>
<path d="M17.1447 29.6599C17.1447 29.8591 16.9817 30.022 16.7825 30.022H12.412C12.2129 30.022 12.0499 29.8591 12.0499 29.6599V18.7741C12.0499 18.5749 12.2129 18.412 12.412 18.412H16.7825C16.9817 18.412 17.1447 18.5749 17.1447 18.7741V29.6599Z" fill="#FECF05"/>
<path d="M26.704 29.6599C26.704 29.8591 26.541 30.022 26.3418 30.022H21.9712C21.7721 30.022 21.6091 29.8591 21.6091 29.6599V18.7741C21.6091 18.5749 21.7721 18.412 21.9712 18.412H26.3418C26.541 18.412 26.704 18.5749 26.704 18.7741V29.6599Z" fill="#FECF05"/>
<path d="M36.1501 29.6599C36.1501 29.8591 35.9872 30.022 35.788 30.022H31.4175C31.2183 30.022 31.0553 29.8591 31.0553 29.6599V18.7741C31.0553 18.5749 31.2183 18.412 31.4175 18.412H35.788C35.9872 18.412 36.1501 18.5749 36.1501 18.7741V29.6599Z" fill="#FECF05"/>
<path d="M16.7825 17.8846H12.412C11.9215 17.8846 11.5225 18.2837 11.5225 18.7741V29.6599C11.5225 30.1504 11.9215 30.5493 12.412 30.5493H16.7825C17.273 30.5493 17.6721 30.1503 17.6721 29.6599V18.7741C17.6721 18.2837 17.273 17.8846 16.7825 17.8846ZM16.6174 20.7955H15.1246V18.9394H16.6174V20.7955ZM14.0699 24.7088V26.5126H12.5772V24.7088H14.0699ZM12.5772 23.6541V21.8502H14.0699V23.6541H12.5772ZM15.1246 24.7088H16.6174V26.5126H15.1246V24.7088ZM15.1246 23.6541V21.8502H16.6174V23.6541H15.1246ZM14.0699 18.9393V20.7954H12.5772V18.9393H14.0699ZM12.5772 27.5672H14.0699V29.4947H12.5772V27.5672ZM15.1246 29.4947V27.5672H16.6174V29.4947H15.1246Z" fill="#0059AD"/>
<path d="M26.3418 17.8846H21.9712C21.4807 17.8846 21.0817 18.2837 21.0817 18.7741V29.6599C21.0817 30.1504 21.4807 30.5493 21.9712 30.5493H26.3418C26.8323 30.5493 27.2313 30.1503 27.2313 29.6599V18.7741C27.2313 18.2837 26.8323 17.8846 26.3418 17.8846ZM26.1766 20.7955H24.6839V18.9394H26.1766V20.7955ZM23.6292 24.7088V26.5126H22.1365V24.7088H23.6292ZM22.1365 23.6541V21.8502H23.6292V23.6541H22.1365ZM24.6839 24.7088H26.1766V26.5126H24.6839V24.7088ZM24.6839 23.6541V21.8502H26.1766V23.6541H24.6839ZM23.6292 18.9393V20.7954H22.1365V18.9393H23.6292ZM22.1365 27.5672H23.6292V29.4947H22.1365V27.5672ZM24.6839 29.4947V27.5672H26.1766V29.4947H24.6839Z" fill="#0059AD"/>
<path d="M18.6655 17.8846C18.3742 17.8846 18.1381 18.1207 18.1381 18.412V30.0221C18.1381 30.3134 18.3742 30.5494 18.6655 30.5494C18.9567 30.5494 19.1928 30.3134 19.1928 30.0221V18.412C19.1928 18.1208 18.9567 17.8846 18.6655 17.8846Z" fill="#0059AD"/>
<path d="M20.1373 17.8846C19.846 17.8846 19.6099 18.1207 19.6099 18.412V30.0221C19.6099 30.3134 19.846 30.5494 20.1373 30.5494C20.4285 30.5494 20.6646 30.3134 20.6646 30.0221V18.412C20.6646 18.1208 20.4285 17.8846 20.1373 17.8846Z" fill="#0059AD"/>
<path d="M35.788 17.8846H31.4175C30.927 17.8846 30.528 18.2837 30.528 18.7741V29.6599C30.528 30.1504 30.927 30.5493 31.4175 30.5493H35.788C36.2785 30.5493 36.6775 30.1503 36.6775 29.6599V18.7741C36.6775 18.2837 36.2785 17.8846 35.788 17.8846ZM35.6228 20.7955H34.1301V18.9394H35.6228V20.7955ZM33.0754 24.7088V26.5126H31.5826V24.7088H33.0754ZM31.5826 23.6541V21.8502H33.0754V23.6541H31.5826ZM34.1301 24.7088H35.6228V26.5126H34.1301V24.7088ZM34.1301 23.6541V21.8502H35.6228V23.6541H34.1301ZM33.0754 18.9393V20.7954H31.5826V18.9393H33.0754ZM31.5826 27.5672H33.0754V29.4947H31.5826V27.5672ZM34.1301 29.4947V27.5672H35.6228V29.4947H34.1301Z" fill="#0059AD"/>
<path d="M28.1068 17.8846C27.8155 17.8846 27.5794 18.1207 27.5794 18.412V30.0221C27.5794 30.3134 27.8155 30.5494 28.1068 30.5494C28.398 30.5494 28.6341 30.3134 28.6341 30.0221V18.412C28.6341 18.1208 28.398 17.8846 28.1068 17.8846Z" fill="#0059AD"/>
<path d="M29.5787 17.8846C29.2875 17.8846 29.0514 18.1207 29.0514 18.412V30.0221C29.0514 30.3134 29.2875 30.5494 29.5787 30.5494C29.87 30.5494 30.1061 30.3134 30.1061 30.0221V18.412C30.1061 18.1208 29.87 17.8846 29.5787 17.8846Z" fill="#0059AD"/>
<path d="M27.5295 40.1718V34.9597C27.5295 33.0643 25.994 31.528 24.1 31.528C22.206 31.528 20.6705 33.0643 20.6705 34.9597V40.1718H27.5295Z" fill="#8C6239"/>
<path d="M17.736 33.6152C17.736 33.3241 17.9723 33.0879 18.2634 33.0879C18.5545 33.0879 18.7907 33.3241 18.7907 33.6152C18.7907 33.9063 18.5545 34.1426 18.2634 34.1426C17.9723 34.1426 17.736 33.9063 17.736 33.6152ZM15.6266 33.6152C15.6266 33.3241 15.8629 33.0879 16.154 33.0879C16.4458 33.0879 16.6813 33.3241 16.6813 33.6152C16.6813 33.9063 16.4458 34.1426 16.154 34.1426C15.8629 34.1426 15.6266 33.9063 15.6266 33.6152ZM13.5173 33.6152C13.5173 33.3241 13.7535 33.0879 14.0446 33.0879C14.3357 33.0879 14.572 33.3241 14.572 33.6152C14.572 33.9063 14.3357 34.1426 14.0446 34.1426C13.7535 34.1426 13.5173 33.9063 13.5173 33.6152ZM11.4079 33.6152C11.4079 33.3241 11.6441 33.0879 11.9352 33.0879C12.2263 33.0879 12.4626 33.3241 12.4626 33.6152C12.4626 33.9063 12.2263 34.1426 11.9352 34.1426C11.6441 34.1426 11.4079 33.9063 11.4079 33.6152ZM9.29852 33.6152C9.29852 33.3241 9.53477 33.0879 9.82587 33.0879C10.1177 33.0879 10.3532 33.3241 10.3532 33.6152C10.3532 33.9063 10.1177 34.1426 9.82587 34.1426C9.53477 34.1426 9.29852 33.9063 9.29852 33.6152Z" fill="#068F8F"/>
<path d="M36.9103 33.6152C36.9103 33.3241 37.1465 33.0879 37.4376 33.0879C37.7287 33.0879 37.965 33.3241 37.965 33.6152C37.965 33.9063 37.7287 34.1426 37.4376 34.1426C37.1465 34.1426 36.9103 33.9063 36.9103 33.6152ZM34.8009 33.6152C34.8009 33.3241 35.0372 33.0879 35.3282 33.0879C35.6193 33.0879 35.8556 33.3241 35.8556 33.6152C35.8556 33.9063 35.6193 34.1426 35.3282 34.1426C35.0372 34.1426 34.8009 33.9063 34.8009 33.6152ZM32.6915 33.6152C32.6915 33.3241 32.9271 33.0879 33.2189 33.0879C33.51 33.0879 33.7462 33.3241 33.7462 33.6152C33.7462 33.9063 33.51 34.1426 33.2189 34.1426C32.9271 34.1426 32.6915 33.9063 32.6915 33.6152ZM30.5822 33.6152C30.5822 33.3241 30.8184 33.0879 31.1095 33.0879C31.4006 33.0879 31.6368 33.3241 31.6368 33.6152C31.6368 33.9063 31.4006 34.1426 31.1095 34.1426C30.8184 34.1426 30.5822 33.9063 30.5822 33.6152ZM28.4728 33.6152C28.4728 33.3241 28.709 33.0879 29.0001 33.0879C29.2912 33.0879 29.5275 33.3241 29.5275 33.6152C29.5275 33.9063 29.2912 34.1426 29.0001 34.1426C28.709 34.1426 28.4728 33.9063 28.4728 33.6152Z" fill="#068F8F"/>
<path d="M21.1978 40.1718V34.9597C21.1978 33.5385 22.2234 32.3533 23.5726 32.1043V40.1718H24.6273V32.1043C25.9766 32.3533 27.0022 33.5385 27.0022 34.9597V40.1718H28.0569V34.9597C28.0569 32.7767 26.2818 31.0007 24.1 31.0007C21.9182 31.0007 20.1431 32.7767 20.1431 34.9597V40.1718H21.1978Z" fill="#A67C52"/>
<path d="M25.4849 37.411C25.1936 37.411 24.9575 37.1749 24.9575 36.8836V35.5336C24.9575 35.2423 25.1936 35.0062 25.4849 35.0062C25.7761 35.0062 26.0122 35.2423 26.0122 35.5336V36.8836C26.0122 37.1749 25.7761 37.411 25.4849 37.411Z" fill="#A67C52"/>
<path d="M22.7152 37.411C22.424 37.411 22.1879 37.1749 22.1879 36.8836V35.5336C22.1879 35.2423 22.424 35.0062 22.7152 35.0062C23.0064 35.0062 23.2426 35.2423 23.2426 35.5336V36.8836C23.2426 37.1749 23.0064 37.411 22.7152 37.411Z" fill="#A67C52"/>
<path d="M12.7797 38.3906C12.7797 38.5101 12.6819 38.608 12.5624 38.608H11.0836C10.9641 38.608 10.8663 38.5101 10.8663 38.3906V36.7211C10.8663 36.6015 10.9641 36.5037 11.0836 36.5037H12.5624C12.6819 36.5037 12.7797 36.6015 12.7797 36.7211V38.3906Z" fill="#6ECAD5"/>
<path d="M15.8522 38.3907C15.8522 38.5102 15.7544 38.608 15.6349 38.608H14.1561C14.0366 38.608 13.9388 38.5102 13.9388 38.3907V36.7211C13.9388 36.6015 14.0366 36.5038 14.1561 36.5038H15.6349C15.7544 36.5038 15.8522 36.6015 15.8522 36.7211V38.3907Z" fill="#6ECAD5"/>
<path d="M18.9673 38.3907C18.9673 38.5102 18.8695 38.608 18.7499 38.608H17.2711C17.1516 38.608 17.0538 38.5102 17.0538 38.3907V36.7211C17.0538 36.6015 17.1516 36.5038 17.2711 36.5038H18.7499C18.8695 36.5038 18.9673 36.6015 18.9673 36.7211V38.3907Z" fill="#6ECAD5"/>
<path d="M31.1462 38.3907C31.1462 38.5102 31.0483 38.608 30.9288 38.608H29.45C29.3305 38.608 29.2327 38.5102 29.2327 38.3907V36.7211C29.2327 36.6015 29.3305 36.5038 29.45 36.5038H30.9288C31.0483 36.5038 31.1462 36.6015 31.1462 36.7211V38.3907Z" fill="#6ECAD5"/>
<path d="M34.2611 38.3907C34.2611 38.5102 34.1633 38.608 34.0437 38.608H32.565C32.4455 38.608 32.3477 38.5102 32.3477 38.3907V36.7211C32.3477 36.6015 32.4455 36.5038 32.565 36.5038H34.0437C34.1633 36.5038 34.2611 36.6015 34.2611 36.7211V38.3907Z" fill="#6ECAD5"/>
<path d="M37.3336 38.3907C37.3336 38.5102 37.2358 38.608 37.1162 38.608H35.6375C35.518 38.608 35.4202 38.5102 35.4202 38.3907V36.7211C35.4202 36.6015 35.518 36.5038 35.6375 36.5038H37.1162C37.2358 36.5038 37.3336 36.6015 37.3336 36.7211V38.3907Z" fill="#6ECAD5"/>
<path d="M41.0646 41.6378C41.0646 41.837 40.9016 42 40.7024 42H7.49786C7.29867 42 7.13568 41.837 7.13568 41.6378V40.3563C7.13568 40.157 7.29867 39.9941 7.49786 39.9941H40.7024C40.9016 39.9941 41.0646 40.157 41.0646 40.3563V41.6378Z" fill="#EBB272"/>
<path opacity="0.1" d="M9.10612 41.6378V40.3563C9.10612 40.157 9.2691 39.9941 9.4683 39.9941H7.49786C7.29867 39.9941 7.13568 40.157 7.13568 40.3563V41.6378C7.13568 41.837 7.29867 42 7.49786 42H9.4683C9.2691 42 9.10612 41.837 9.10612 41.6378Z" fill="black"/>
</svg>
