<svg width="49" height="48" viewBox="0 0 49 48" fill="none" xmlns="http://www.w3.org/2000/svg">
<g clip-path="url(#clip0_499_6826)">
<path d="M30.3779 19.4987C30.3238 19.6053 30.192 19.6482 30.0854 19.5941L23.2778 16.1412C23.1711 16.087 23.1282 15.9556 23.1824 15.849L27.9439 6.48157C27.998 6.37498 28.1296 6.33209 28.2363 6.38623L35.044 9.83914C35.1506 9.89328 35.1935 10.0248 35.1394 10.1313L30.3779 19.4987Z" fill="#60A041"/>
<path d="M25.861 15.2988C25.7541 15.2447 25.7112 15.1133 25.7655 15.0067L28.7871 9.06202C28.8413 8.95543 28.973 8.91253 29.0796 8.96668L32.4608 10.6817C32.5676 10.7357 32.6105 10.8672 32.5562 10.9738L29.5346 16.9185C29.4804 17.0251 29.3487 17.0679 29.2422 17.0138L25.861 15.2988Z" fill="#4B7D32"/>
<path d="M29.7137 16.7231C29.7137 16.8426 29.6158 16.9404 29.4962 16.9404H21.8613C21.7416 16.9404 21.6437 16.8426 21.6437 16.7231V6.21734C21.6437 6.0978 21.7416 6 21.8613 6H29.4962C29.6158 6 29.7138 6.0978 29.7138 6.21734V16.7231H29.7137Z" fill="#89C947"/>
<path d="M23.7828 15.0211C23.6631 15.0211 23.5652 14.9233 23.5652 14.8037V8.1367C23.5652 8.01717 23.6631 7.91943 23.7828 7.91943H27.5749C27.6946 7.91943 27.7924 8.01724 27.7924 8.1367V14.8037C27.7924 14.9233 27.6946 15.0211 27.5749 15.0211H23.7828Z" fill="#4B7D32"/>
<path d="M25.6793 15.885C26.7139 15.885 27.5527 15.0471 27.5527 14.0135C27.5527 12.98 26.7139 12.1421 25.6793 12.1421C24.6446 12.1421 23.8058 12.98 23.8058 14.0135C23.8058 15.0471 24.6446 15.885 25.6793 15.885Z" fill="#89C947"/>
<path d="M30.84 18.9558C31.2388 18.9558 31.7282 18.6735 31.9276 18.3285L34.0703 14.6213C34.2697 14.2763 34.1066 13.994 33.7078 13.994H20.5477C20.1488 13.994 19.9857 14.2763 20.1851 14.6213L22.3278 18.3285C22.5272 18.6735 23.0166 18.9558 23.4155 18.9558H30.84Z" fill="#A67C52"/>
<path opacity="0.1" d="M24.4919 18.3285L22.3493 14.6213C22.1499 14.2763 22.313 13.994 22.7118 13.994H20.5477C20.1488 13.994 19.9857 14.2763 20.1851 14.6213L22.3278 18.3285C22.5272 18.6735 23.0166 18.9558 23.4155 18.9558H25.5797C25.1809 18.9558 24.6913 18.6735 24.4919 18.3285Z" fill="black"/>
<path d="M19.4066 40.8367C19.1904 40.8367 18.9823 40.7548 18.8244 40.6074C16.368 38.3157 14.9591 35.0773 14.9591 31.7226C14.9591 25.02 20.418 19.5671 27.1276 19.5671C33.8375 19.5671 39.2962 25.02 39.2962 31.7226C39.2962 35.0773 37.8875 38.3158 35.431 40.6074C35.273 40.7548 35.0649 40.8367 34.8488 40.8367H19.4066Z" fill="#A67C52"/>
<path opacity="0.1" d="M16.5547 31.7224C16.5547 25.2878 21.5861 20.0058 27.9252 19.5938C27.6615 19.5764 27.3957 19.567 27.1276 19.567C20.4179 19.567 14.9591 25.0199 14.9591 31.7224C14.9591 35.0772 16.368 38.3156 18.8244 40.6073C18.9823 40.7546 19.1904 40.8365 19.4066 40.8365H21.0022C20.786 40.8365 20.5779 40.7546 20.42 40.6073C17.9636 38.3156 16.5547 35.0772 16.5547 31.7224Z" fill="black"/>
<path d="M27.1275 36.2013C30.2951 36.2013 32.8629 33.6363 32.8629 30.4722C32.8629 27.3082 30.2951 24.7432 27.1275 24.7432C23.96 24.7432 21.3922 27.3082 21.3922 30.4722C21.3922 33.6363 23.96 36.2013 27.1275 36.2013Z" fill="#4B7D32"/>
<path opacity="0.1" d="M22.8322 30.4721C22.8322 27.5518 25.0201 25.1434 27.8475 24.7895C27.6116 24.7599 27.3716 24.7429 27.1276 24.7429C23.9602 24.7429 21.3925 27.308 21.3925 30.4721C21.3925 33.6361 23.9603 36.2011 27.1276 36.2011C27.3717 36.2011 27.6116 36.1841 27.8475 36.1546C25.0202 35.8006 22.8322 33.3924 22.8322 30.4721Z" fill="black"/>
<path d="M27.1276 36.7285C23.6745 36.7285 20.8652 33.9219 20.8652 30.4721C20.8652 27.0222 23.6745 24.2156 27.1276 24.2156C30.5808 24.2156 33.3902 27.0222 33.3902 30.4721C33.3903 33.9219 30.5808 36.7285 27.1276 36.7285ZM27.1276 25.2703C24.2561 25.2703 21.9199 27.6038 21.9199 30.4721C21.9199 33.3403 24.2561 35.6738 27.1276 35.6738C29.9993 35.6738 32.3355 33.3402 32.3355 30.4721C32.3356 27.6038 29.9993 25.2703 27.1276 25.2703Z" fill="#60A041"/>
<path d="M25.7827 19.922C25.4913 19.922 25.2553 19.6859 25.2553 19.3946V16.9404C25.2553 16.6492 25.4913 16.4131 25.7827 16.4131C26.074 16.4131 26.31 16.6492 26.31 16.9404V19.3946C26.31 19.6859 26.074 19.922 25.7827 19.922Z" fill="#8C6239"/>
<path d="M28.4726 19.9219C28.1813 19.9219 27.9453 19.6858 27.9453 19.3946V17.3242C27.9453 17.033 28.1813 16.7969 28.4726 16.7969C28.7639 16.7969 28.9999 17.033 28.9999 17.3242V19.3946C28.9999 19.6858 28.7639 19.9219 28.4726 19.9219Z" fill="#8C6239"/>
<path d="M28.0778 29.7728H27.2393H26.7923H26.1775C25.8828 29.7728 25.6429 29.5335 25.6429 29.2394V29.016C25.6429 28.722 25.8827 28.4827 26.1775 28.4827H28.3571C28.6485 28.4827 28.8845 28.2466 28.8845 27.9553C28.8845 27.6641 28.6485 27.428 28.3571 27.428H27.6549V26.7271C27.6549 26.4358 27.4189 26.1997 27.1276 26.1997C26.8363 26.1997 26.6002 26.4358 26.6002 26.7271V27.428H26.1775C25.3012 27.428 24.5883 28.1403 24.5883 29.016V29.2394C24.5883 30.1151 25.3012 30.8275 26.1775 30.8275H26.7923H27.2393H28.0778C28.3725 30.8275 28.6124 31.0667 28.6124 31.3609V31.5842C28.6124 31.8783 28.3726 32.1176 28.0778 32.1176H25.4509C25.1596 32.1176 24.9236 32.3537 24.9236 32.6449C24.9236 32.9361 25.1596 33.1722 25.4509 33.1722H26.6003V33.9289C26.6003 34.2202 26.8364 34.4563 27.1277 34.4563C27.419 34.4563 27.655 34.2202 27.655 33.9289V33.1722H28.0779C28.9542 33.1722 29.6671 32.4598 29.6671 31.5842V31.3609C29.667 30.4852 28.9541 29.7728 28.0778 29.7728Z" fill="#89C947"/>
<path d="M24.246 39.1211V37.3287C24.246 37.1295 24.0829 36.9665 23.8835 36.9665H17.8309C18.0304 36.9665 18.1935 36.8035 18.1935 36.6043V34.812C18.1935 34.6128 18.0304 34.4498 17.8309 34.4498C18.0304 34.4498 18.1935 34.2868 18.1935 34.0876V32.2951C18.1935 32.0959 18.0304 31.933 17.8309 31.933C18.0304 31.933 18.1935 31.77 18.1935 31.5708V29.7784C18.1935 29.5792 18.0304 29.4163 17.8309 29.4163H10.8619C10.6625 29.4163 10.4994 29.5792 10.4994 29.7784V31.5708C10.4994 31.77 10.6625 31.933 10.8619 31.933C10.6625 31.933 10.4994 32.0959 10.4994 32.2951V34.0876C10.4994 34.2868 10.6625 34.4498 10.8619 34.4498C10.6625 34.4498 10.4994 34.6128 10.4994 34.812V36.6043C10.4994 36.8035 10.6625 36.9665 10.8619 36.9665C10.6625 36.9665 10.4994 37.1295 10.4994 37.3287V39.1211C10.4994 39.3203 10.6625 39.4833 10.8619 39.4833C10.6625 39.4833 10.4994 39.6462 10.4994 39.8454V41.6378C10.4994 41.837 10.6625 41.9999 10.8619 41.9999H16.9144H17.8309H23.8834C24.0829 41.9999 24.246 41.837 24.246 41.6378V39.8454C24.246 39.6462 24.0829 39.4833 23.8834 39.4833C24.0829 39.4833 24.246 39.3203 24.246 39.1211Z" fill="#FECF05"/>
<path d="M18.1935 41.6377C18.1935 41.8369 18.0304 41.9999 17.8309 41.9999H10.8619C10.6625 41.9999 10.4994 41.8369 10.4994 41.6377V39.8454C10.4994 39.6462 10.6625 39.4832 10.8619 39.4832H17.8309C18.0303 39.4832 18.1934 39.6462 18.1934 39.8454L18.1935 41.6377Z" fill="#FECF05"/>
<path d="M18.1935 39.1212C18.1935 39.3204 18.0304 39.4834 17.8309 39.4834H10.8619C10.6625 39.4834 10.4994 39.3204 10.4994 39.1212V37.3288C10.4994 37.1296 10.6625 36.9666 10.8619 36.9666H17.8309C18.0303 36.9666 18.1934 37.1296 18.1934 37.3288L18.1935 39.1212Z" fill="#F8B816"/>
<path d="M18.1935 36.6045C18.1935 36.8037 18.0304 36.9667 17.8309 36.9667H10.8619C10.6625 36.9667 10.4994 36.8037 10.4994 36.6045V34.8122C10.4994 34.613 10.6625 34.45 10.8619 34.45H17.8309C18.0303 34.45 18.1934 34.613 18.1934 34.8122L18.1935 36.6045Z" fill="#FECF05"/>
<path d="M18.1935 34.0878C18.1935 34.287 18.0304 34.4499 17.8309 34.4499H10.8619C10.6625 34.4499 10.4994 34.287 10.4994 34.0878V32.2953C10.4994 32.0961 10.6625 31.9331 10.8619 31.9331H17.8309C18.0303 31.9331 18.1934 32.0961 18.1934 32.2953L18.1935 34.0878Z" fill="#F8B816"/>
<path d="M18.1935 31.5709C18.1935 31.7701 18.0304 31.9331 17.8309 31.9331H10.8619C10.6625 31.9331 10.4994 31.7701 10.4994 31.5709V29.7786C10.4994 29.5794 10.6625 29.4164 10.8619 29.4164H17.8309C18.0303 29.4164 18.1934 29.5794 18.1934 29.7786L18.1935 31.5709Z" fill="#FECF05"/>
<path d="M24.246 41.6377C24.246 41.8369 24.0829 41.9999 23.8835 41.9999H16.9145C16.7151 41.9999 16.5519 41.8369 16.5519 41.6377V39.8454C16.5519 39.6462 16.7151 39.4832 16.9145 39.4832H23.8835C24.0829 39.4832 24.246 39.6462 24.246 39.8454V41.6377Z" fill="#F8B816"/>
<path d="M24.246 39.1212C24.246 39.3204 24.0829 39.4834 23.8835 39.4834H16.9145C16.7151 39.4834 16.5519 39.3204 16.5519 39.1212V37.3288C16.5519 37.1296 16.7151 36.9666 16.9145 36.9666H23.8835C24.0829 36.9666 24.246 37.1296 24.246 37.3288V39.1212Z" fill="#FECF05"/>
<path d="M33.0762 20.643C33.0762 20.8422 32.9131 21.0052 32.7137 21.0052H21.5417C21.3423 21.0052 21.1792 20.8422 21.1792 20.643V18.838C21.1792 18.6388 21.3423 18.4758 21.5417 18.4758H32.7137C32.9131 18.4758 33.0762 18.6388 33.0762 18.838V20.643Z" fill="#EBB272"/>
<path d="M11.975 26.6628C11.885 26.6628 11.804 26.6085 11.7696 26.5255C11.305 25.4047 10.9626 25.0624 9.84119 24.598C9.75801 24.5636 9.7038 24.4825 9.7038 24.3927C9.7038 24.3028 9.75801 24.2217 9.84119 24.1874C10.9625 23.7231 11.3049 23.3809 11.7696 22.2599C11.804 22.1768 11.885 22.1227 11.975 22.1227C12.0648 22.1227 12.146 22.1768 12.1804 22.2599C12.645 23.3809 12.9875 23.723 14.1088 24.1874C14.192 24.2218 14.2462 24.3029 14.2462 24.3927C14.2462 24.4826 14.192 24.5637 14.1088 24.598C12.9875 25.0624 12.645 25.4047 12.1804 26.5255C12.146 26.6086 12.0649 26.6628 11.975 26.6628Z" fill="#F8B816"/>
<path d="M15.6256 20.1365C15.5585 20.1365 15.498 20.0961 15.4722 20.034C15.1255 19.1976 14.87 18.9422 14.0331 18.5956C13.9711 18.5699 13.9306 18.5095 13.9306 18.4424C13.9306 18.3753 13.9711 18.3148 14.0331 18.2891C14.87 17.9426 15.1255 17.6872 15.4722 16.8508C15.4979 16.7888 15.5585 16.7484 15.6256 16.7484C15.6926 16.7484 15.7532 16.7888 15.7788 16.8508C16.1256 17.6872 16.381 17.9426 17.2179 18.2891C17.28 18.3148 17.3205 18.3753 17.3205 18.4424C17.3205 18.5095 17.28 18.5699 17.2179 18.5956C16.3811 18.9422 16.1256 19.1976 15.7788 20.034C15.7532 20.0961 15.6926 20.1365 15.6256 20.1365Z" fill="#FECF05"/>
<path opacity="0.1" d="M11.5267 41.6378V39.8454C11.5267 39.6462 11.6899 39.4833 11.8893 39.4833C11.6899 39.4833 11.5267 39.3203 11.5267 39.1211V37.3287C11.5267 37.1295 11.6899 36.9665 11.8893 36.9665C11.6899 36.9665 11.5267 36.8035 11.5267 36.6043V34.812C11.5267 34.6128 11.6899 34.4498 11.8893 34.4498C11.6899 34.4498 11.5267 34.2868 11.5267 34.0876V32.2951C11.5267 32.0959 11.6899 31.933 11.8893 31.933C11.6899 31.933 11.5267 31.77 11.5267 31.5708V29.7784C11.5267 29.5792 11.6899 29.4163 11.8893 29.4163H10.8619C10.6625 29.4163 10.4994 29.5792 10.4994 29.7784V31.5708C10.4994 31.77 10.6625 31.933 10.8619 31.933C10.6625 31.933 10.4994 32.0959 10.4994 32.2951V34.0876C10.4994 34.2868 10.6625 34.4498 10.8619 34.4498C10.6625 34.4498 10.4994 34.6128 10.4994 34.812V36.6043C10.4994 36.8035 10.6625 36.9665 10.8619 36.9665C10.6625 36.9665 10.4994 37.1295 10.4994 37.3287V39.1211C10.4994 39.3203 10.6625 39.4833 10.8619 39.4833C10.6625 39.4833 10.4994 39.6462 10.4994 39.8454V41.6378C10.4994 41.837 10.6625 41.9999 10.8619 41.9999H11.8893C11.6899 41.9999 11.5267 41.837 11.5267 41.6378Z" fill="black"/>
<path opacity="0.1" d="M17.3958 41.6379V39.8456C17.3958 39.6464 17.5589 39.4834 17.7583 39.4834C17.5589 39.4834 17.3958 39.3204 17.3958 39.1212V37.3288C17.3958 37.1296 17.5589 36.9666 17.7583 36.9666H16.9145C16.7151 36.9666 16.5519 37.1296 16.5519 37.3288V39.1212C16.5519 39.3204 16.7151 39.4834 16.9145 39.4834C16.7151 39.4834 16.5519 39.6464 16.5519 39.8456V41.6379C16.5519 41.8371 16.7151 42.0001 16.9145 42.0001H17.7583C17.5589 42.0001 17.3958 41.8371 17.3958 41.6379Z" fill="black"/>
</g>
<defs>
<clipPath id="clip0_499_6826">
<rect width="36" height="36" fill="white" transform="translate(6.5 6)"/>
</clipPath>
</defs>
</svg>
