<svg width="49" height="48" viewBox="0 0 49 48" fill="none" xmlns="http://www.w3.org/2000/svg">
<g clip-path="url(#clip0_499_6859)">
<path d="M33.8203 12.2476C34.0197 12.2476 34.2991 12.3618 34.4413 12.5015L39.441 17.4149C39.5832 17.5545 39.6017 17.7994 39.4823 17.9589L25.4735 36.6691C25.3541 36.8287 25.1587 36.8287 25.0393 36.6691L11.0307 17.9589C10.9112 17.7994 10.9298 17.5546 11.0719 17.4149L16.0716 12.5015C16.2137 12.3619 16.4932 12.2476 16.6927 12.2476H33.8203Z" fill="#6ECAD5"/>
<path d="M11.0718 17.4149C11.0033 17.4822 10.9643 17.574 10.9548 17.6689H39.5579C39.5484 17.574 39.5093 17.4822 39.4408 17.4149L34.4411 12.5015C34.299 12.3619 34.0195 12.2476 33.8201 12.2476H16.6926C16.4931 12.2476 16.2136 12.3618 16.0715 12.5015L11.0718 17.4149Z" fill="#0CB8C0"/>
<path d="M33.3233 17.6689H25.2566V36.7889C25.292 36.7889 25.3272 36.7796 25.3609 36.7635C25.3739 36.7444 25.3863 36.7219 25.3976 36.695L33.2763 17.9347C33.3081 17.8591 33.3227 17.7651 33.3233 17.6689Z" fill="#068F8F"/>
<path d="M33.2938 17.4971C33.2869 17.4718 33.2791 17.4472 33.2698 17.424C33.279 17.4472 33.2869 17.4718 33.2938 17.4971Z" fill="#068F8F"/>
<path d="M30.3008 12.2476H20.1749L17.2761 17.3548C17.2272 17.4398 17.1985 17.5535 17.1907 17.6689H33.322C33.3142 17.5535 33.2854 17.4398 33.2365 17.3548L30.3008 12.2476Z" fill="#6ECAD5"/>
<path d="M25.2566 12.2476V17.6689H25.2567C25.3533 17.6689 25.4499 17.6265 25.5232 17.5419L30.1065 12.2476H25.2566Z" fill="#068F8F"/>
<path d="M20.4066 12.2476L24.99 17.5419C25.0633 17.6266 25.1599 17.6689 25.2566 17.6689V12.2476H20.4066Z" fill="#0CB8C0"/>
<path d="M25.255 17.6689H25.2551C25.2471 17.6689 25.2391 17.6668 25.2311 17.6662C25.239 17.6668 25.247 17.6689 25.255 17.6689Z" fill="#068F8F"/>
<path d="M12.5272 13.2386C12.4207 13.2386 12.3249 13.1745 12.2841 13.0762C11.7347 11.7507 11.3298 11.346 10.0033 10.7968C9.90502 10.7562 9.84082 10.6602 9.84082 10.5539C9.84082 10.4476 9.90502 10.3518 10.0033 10.3111C11.3298 9.76195 11.7348 9.35721 12.2841 8.03161C12.3249 7.93345 12.4207 7.86932 12.5272 7.86932C12.6337 7.86932 12.7295 7.93345 12.7703 8.03161C13.3198 9.35721 13.7247 9.76195 15.0512 10.3111C15.1494 10.3518 15.2137 10.4477 15.2137 10.5539C15.2137 10.6602 15.1494 10.7562 15.0512 10.7968C13.7247 11.346 13.3198 11.7508 12.7703 13.0762C12.7295 13.1746 12.6337 13.2386 12.5272 13.2386Z" fill="#FECF05"/>
<path d="M31.3923 38.9071C31.286 38.9071 31.1903 38.843 31.1495 38.7448C30.6 37.4192 30.195 37.0145 28.8685 36.4653C28.7703 36.4246 28.7061 36.3287 28.7061 36.2224C28.7061 36.1161 28.7703 36.0202 28.8685 35.9795C30.195 35.4304 30.6 35.0256 31.1495 33.7C31.1903 33.6018 31.286 33.5377 31.3923 33.5377C31.4989 33.5377 31.5949 33.6018 31.6355 33.7C32.1849 35.0256 32.59 35.4304 33.9165 35.9795C34.0148 36.0202 34.0789 36.1161 34.0789 36.2224C34.0789 36.3286 34.0149 36.4246 33.9165 36.4653C32.5901 37.0145 32.1849 37.4192 31.6355 38.7448C31.5949 38.8429 31.4989 38.9071 31.3923 38.9071Z" fill="#FECF05"/>
<path d="M23.0772 41.5483C23.0002 41.5483 22.931 41.502 22.9015 41.4309C22.504 40.4721 22.2111 40.1794 21.2515 39.7821C21.1805 39.7527 21.134 39.6833 21.134 39.6064C21.134 39.5295 21.1805 39.4601 21.2515 39.4307C22.2111 39.0335 22.5039 38.7408 22.9015 37.782C22.931 37.7109 23.0002 37.6646 23.0772 37.6646C23.1543 37.6646 23.2235 37.7109 23.2532 37.782C23.6504 38.7408 23.9434 39.0335 24.903 39.4307C24.9741 39.4602 25.0205 39.5295 25.0205 39.6064C25.0205 39.6833 24.9741 39.7527 24.903 39.7821C23.9434 40.1794 23.6504 40.4721 23.2532 41.4309C23.2235 41.502 23.1542 41.5483 23.0772 41.5483Z" fill="#F7931E"/>
<path d="M15.6836 7.35313C15.599 7.26861 15.599 7.1303 15.6836 7.04578L16.6672 6.06339C16.7517 5.97887 16.8903 5.97887 16.9748 6.06339L17.9584 7.04578C18.043 7.1303 18.043 7.26854 17.9584 7.35313L16.9748 8.33552C16.8903 8.42004 16.7517 8.42004 16.6672 8.33552L15.6836 7.35313Z" fill="#F7931E"/>
<path d="M28.1027 40.9561C28.018 40.8716 28.018 40.7333 28.1027 40.6487L29.0863 39.6664C29.171 39.5818 29.3094 39.5818 29.3941 39.6664L30.3775 40.6487C30.4621 40.7333 30.4621 40.8716 30.3775 40.9561L29.3941 41.9385C29.3094 42.023 29.171 42.023 29.0863 41.9385L28.1027 40.9561Z" fill="#FECF05"/>
<path d="M17.2369 17.9347L25.1154 36.6949C25.1266 36.7218 25.1391 36.7443 25.1521 36.7634C25.1858 36.7795 25.2211 36.7888 25.2565 36.7888V17.6689H17.1898C17.1905 17.7651 17.2052 17.8591 17.2369 17.9347Z" fill="#0CB8C0"/>
<path opacity="0.1" d="M12.762 17.9589C12.6426 17.7994 12.6611 17.5546 12.8033 17.4149L17.8029 12.5015C17.945 12.3619 18.2245 12.2476 18.424 12.2476H16.6926C16.4932 12.2476 16.2137 12.3618 16.0716 12.5015L11.0719 17.4149C10.9298 17.5545 10.9112 17.7994 11.0306 17.9589L25.0393 36.6692C25.1586 36.8287 12.762 17.9589 12.762 17.9589Z" fill="black"/>
</g>
<defs>
<clipPath id="clip0_499_6859">
<rect width="36.002" height="36.002" fill="white" transform="translate(6.70007 6)"/>
</clipPath>
</defs>
</svg>
