<svg width="49" height="48" viewBox="0 0 49 48" fill="none" xmlns="http://www.w3.org/2000/svg">
<g clip-path="url(#clip0_499_6793)">
<path d="M24.9 42C20.1003 42 15.5879 40.1276 12.1939 36.728C8.79995 33.3281 6.93091 28.808 6.93091 24C6.93091 19.192 8.79995 14.6719 12.1939 11.272C15.5879 7.87235 20.1003 6 24.9 6C29.6998 6 34.2122 7.87235 37.6061 11.272C41.0001 14.6719 42.8692 19.192 42.8692 24C42.8692 28.808 41.0001 33.3281 37.6061 36.728C34.2122 40.1276 29.6998 42 24.9 42Z" fill="#FECF05"/>
<path d="M24.9 39.0186C33.1807 39.0186 39.8935 32.2945 39.8935 23.9999C39.8935 15.7053 33.1807 8.98114 24.9 8.98114C16.6194 8.98114 9.90659 15.7053 9.90659 23.9999C9.90659 32.2945 16.6194 39.0186 24.9 39.0186Z" fill="#EE3835"/>
<path d="M39.6496 26.7091C39.8095 25.8303 39.8934 24.9251 39.8934 24C39.8934 23.0751 39.8095 22.1697 39.6496 21.291L25.1289 24L39.6496 26.7091Z" fill="#C0272D"/>
<path d="M33.4163 11.6384L25.062 23.8377L37.2405 15.4691C36.2075 13.9725 34.9103 12.6731 33.4163 11.6384Z" fill="#C0272D"/>
<path d="M24.9 23.7707L27.6046 9.22522C26.7272 9.06519 25.8235 8.98096 24.9 8.98096C23.9767 8.98096 23.073 9.06505 22.1957 9.22515L24.9 23.7707Z" fill="#C0272D"/>
<path d="M12.5598 15.4691L24.7382 23.8379L16.384 11.6384C14.8899 12.6732 13.5928 13.9725 12.5598 15.4691Z" fill="#C0272D"/>
<path d="M10.1506 21.2908C9.99073 22.1696 9.90671 23.075 9.90671 24C9.90671 24.9249 9.99073 25.8303 10.1505 26.709L24.6712 24L10.1506 21.2908Z" fill="#C0272D"/>
<path d="M16.3839 36.3615L24.7382 24.162L12.5596 32.5306C13.5927 34.0272 14.8898 35.3267 16.3839 36.3615Z" fill="#C0272D"/>
<path d="M24.9 39.0189C25.8235 39.0189 26.7272 38.9348 27.6045 38.7747L24.9 24.2292L22.1956 38.7748C23.0729 38.9348 23.9766 39.0189 24.9 39.0189Z" fill="#C0272D"/>
<path d="M37.2405 32.5307L25.062 24.162L33.4163 36.3615C34.9103 35.3267 36.2074 34.0272 37.2405 32.5307Z" fill="#C0272D"/>
<path d="M25.0144 40.5737C25.0028 40.2738 25.236 40.0211 25.5359 40.0095C25.8358 39.9979 26.0879 40.2311 26.1002 40.531C26.1118 40.8309 25.8778 41.0836 25.5787 41.0952C25.5714 41.0952 25.5642 41.0952 25.557 41.0952C25.2666 41.0952 25.0261 40.8663 25.0144 40.5737ZM22.966 40.9995C22.6675 40.9662 22.4532 40.6975 22.4873 40.3991C22.5206 40.1007 22.79 39.8862 23.0877 39.9203C23.3861 39.9536 23.6006 40.2231 23.5665 40.5208C23.5354 40.7982 23.3 41.0032 23.0276 41.0032C23.0073 41.0033 22.9863 41.0026 22.966 40.9995ZM27.5388 40.3643C27.4815 40.0695 27.6736 39.7849 27.9683 39.7277V39.7269C28.2631 39.6697 28.5478 39.8624 28.6057 40.1571C28.6629 40.4512 28.4703 40.7366 28.1762 40.7939C28.1407 40.8004 28.106 40.8041 28.0712 40.8041C27.8169 40.8041 27.5895 40.6237 27.5388 40.3643ZM20.3975 40.5071C20.1077 40.4281 19.9368 40.1297 20.0165 39.84C20.0954 39.551 20.3939 39.38 20.6836 39.4597C20.9726 39.5387 21.1435 39.8371 21.0646 40.1268C20.9987 40.3681 20.7799 40.5268 20.5409 40.5268C20.493 40.5267 20.4453 40.5201 20.3975 40.5071ZM30.0015 39.7711C29.9002 39.4886 30.0458 39.1779 30.3282 39.0757C30.61 38.9736 30.9214 39.12 31.0236 39.4017C31.1257 39.6842 30.9794 39.9957 30.6976 40.0978C30.6976 40.0978 30.6976 40.0978 30.6969 40.097C30.6361 40.1195 30.5738 40.1296 30.5129 40.1296C30.2906 40.1296 30.082 39.992 30.0015 39.7711ZM17.9333 39.6249C17.6595 39.5024 17.537 39.1808 17.6595 38.907C17.7819 38.6332 18.1035 38.5108 18.3773 38.6332C18.6511 38.7556 18.7735 39.0771 18.6511 39.351C18.5606 39.5531 18.3621 39.6726 18.1549 39.6726C18.0803 39.6726 18.005 39.6574 17.9333 39.6249ZM32.3427 38.8064C32.1985 38.5433 32.2949 38.213 32.5578 38.0689C32.8214 37.9248 33.1518 38.0219 33.2951 38.2848C33.4393 38.5484 33.3429 38.8779 33.08 39.0221C32.9967 39.0678 32.9076 39.0887 32.8193 39.0887C32.6273 39.0888 32.4412 38.9866 32.3427 38.8064ZM15.6349 38.3746C15.3828 38.2117 15.3111 37.8749 15.4741 37.6235C15.6371 37.3713 15.9739 37.2996 16.2252 37.4626C16.4773 37.6256 16.549 37.9624 16.386 38.2145C16.2818 38.3746 16.1079 38.4622 15.9296 38.4622C15.8283 38.4622 15.7261 38.4339 15.6349 38.3746ZM34.5084 37.4945C34.3259 37.2562 34.3708 36.9151 34.6091 36.7324C34.8474 36.55 35.1886 36.5956 35.3711 36.8333C35.5536 37.0715 35.508 37.4127 35.2704 37.5952C35.1711 37.6705 35.0553 37.7075 34.9401 37.7075C34.7765 37.7074 34.6157 37.6342 34.5084 37.4945ZM13.5546 36.789C13.3308 36.5891 13.3105 36.2464 13.5105 36.0219C13.7097 35.7981 14.0537 35.7778 14.2775 35.9777C14.5014 36.1777 14.5216 36.5203 14.3217 36.7449C14.2146 36.865 14.0653 36.9266 13.9161 36.9266C13.7871 36.9266 13.6582 36.881 13.5546 36.789ZM36.4504 35.8669C36.2338 35.6597 36.2265 35.3156 36.4344 35.0991C36.6416 34.8825 36.9856 34.8752 37.2023 35.0831C37.4188 35.2909 37.4261 35.6343 37.2182 35.8508C37.1117 35.9624 36.969 36.0183 36.8263 36.0183C36.6909 36.0183 36.5554 35.9683 36.4504 35.8669ZM11.7401 34.9063C11.5488 34.6754 11.5814 34.3327 11.8125 34.1415C12.0435 33.9502 12.3862 33.9828 12.5774 34.2139C12.7687 34.445 12.736 34.7876 12.505 34.9788C12.4036 35.0628 12.2812 35.1034 12.1588 35.1034C12.003 35.1034 11.8473 35.0361 11.7401 34.9063ZM38.123 33.964C37.8774 33.7917 37.8181 33.4527 37.9904 33.207C38.1628 32.9615 38.5018 32.9021 38.7474 33.0745C38.993 33.247 39.0523 33.5859 38.88 33.8315C38.7742 33.9821 38.6054 34.0626 38.4345 34.0626C38.3265 34.0626 38.2178 34.0307 38.123 33.964ZM10.2327 32.771C10.0784 32.5131 10.1625 32.18 10.4203 32.0256C10.6774 31.8721 11.0113 31.9562 11.1649 32.214C11.3192 32.4712 11.2351 32.805 10.9773 32.9586C10.8904 33.0108 10.7941 33.0355 10.6992 33.0355C10.5145 33.0355 10.3341 32.9412 10.2327 32.771ZM39.4876 31.8287C39.2189 31.6954 39.1081 31.3695 39.2413 31.1007C39.3739 30.8313 39.6998 30.7212 39.9693 30.8545C40.238 30.987 40.3481 31.313 40.2148 31.5825C40.1206 31.7737 39.9279 31.8845 39.728 31.8845C39.6469 31.8844 39.5651 31.8663 39.4876 31.8287ZM9.06797 30.4307C8.95498 30.1525 9.08977 29.836 9.36715 29.7237C9.64531 29.6107 9.96185 29.7447 10.0748 30.0229C10.1878 30.301 10.0538 30.6176 9.77567 30.7305C9.70831 30.7573 9.63947 30.7703 9.57141 30.7703C9.35703 30.7704 9.15347 30.6422 9.06797 30.4307ZM40.5097 29.5086C40.2236 29.4188 40.065 29.1139 40.1547 28.8277C40.2453 28.5416 40.5503 28.3822 40.8364 28.4727C41.1225 28.5626 41.2812 28.8675 41.1913 29.1536C41.1181 29.3862 40.9044 29.5339 40.6734 29.5339C40.6191 29.5339 40.564 29.526 40.5097 29.5086ZM8.27485 27.939C8.20601 27.6464 8.38714 27.3544 8.67907 27.2856C8.97171 27.2168 9.26358 27.3979 9.33242 27.6897C9.40118 27.9817 9.22013 28.2743 8.92826 28.3432C8.88621 28.3526 8.84424 28.3576 8.80367 28.3576C8.55659 28.3576 8.33349 28.1888 8.27485 27.939ZM41.1637 27.0617C40.8675 27.0161 40.6639 26.7394 40.7089 26.4424C40.7545 26.1462 41.0312 25.9419 41.3282 25.9875C41.6244 26.0324 41.8287 26.3098 41.783 26.6061C41.7418 26.8748 41.5107 27.0675 41.2463 27.0675C41.2196 27.0675 41.192 27.0661 41.1637 27.0617ZM7.8728 25.3545C7.84889 25.056 8.07277 24.7946 8.37188 24.7706C8.67099 24.7474 8.93255 24.9713 8.95568 25.2697C8.97959 25.569 8.75578 25.8304 8.4566 25.8543C8.44212 25.8551 8.42834 25.8558 8.41392 25.8558C8.13289 25.8558 7.89523 25.6391 7.8728 25.3545ZM40.8936 24C40.8936 23.9847 40.8944 23.9702 40.8951 23.9557C40.8944 23.9412 40.8936 23.9268 40.8936 23.9115C40.8914 23.6116 41.1341 23.3669 41.4339 23.3654C41.7338 23.3639 41.9779 23.6059 41.9801 23.9058C41.9801 23.9218 41.9794 23.9376 41.9779 23.9535C41.9794 23.9688 41.9801 23.984 41.9801 24C41.9801 24.2998 41.7368 24.5433 41.4368 24.5433C41.1369 24.5433 40.8936 24.2998 40.8936 24ZM8.36829 23.3226C8.06841 23.3009 7.84383 23.0401 7.86563 22.7411C7.88735 22.4419 8.14737 22.2166 8.44655 22.239C8.74573 22.2608 8.97094 22.5209 8.94928 22.82C8.92826 23.1061 8.68997 23.3242 8.40816 23.3242C8.39431 23.3242 8.3813 23.3234 8.36829 23.3226ZM40.6952 21.4698C40.6488 21.1735 40.8508 20.8954 41.1471 20.8483C41.4434 20.802 41.7215 21.0041 41.7686 21.3003C41.8157 21.5966 41.6136 21.8748 41.3167 21.9218C41.2885 21.9262 41.2594 21.9283 41.2312 21.9283C40.9689 21.9283 40.7378 21.7378 40.6952 21.4698ZM8.66093 20.8064C8.36899 20.7389 8.18576 20.4478 8.25312 20.1551C8.31978 19.8625 8.61171 19.6799 8.90428 19.7472C9.19615 19.8139 9.37946 20.1058 9.3121 20.3977C9.25416 20.6498 9.03035 20.82 8.78335 20.82C8.74278 20.82 8.70221 20.8157 8.66093 20.8064ZM40.128 19.0881C40.0359 18.8027 40.1938 18.4964 40.4792 18.4051C40.7653 18.3131 41.0711 18.4704 41.1631 18.7564C41.2544 19.0419 41.0971 19.3474 40.8117 19.4395C40.7559 19.4569 40.7002 19.4655 40.6451 19.4655C40.4155 19.4655 40.2019 19.3185 40.128 19.0881ZM9.336 18.3624C9.05714 18.2515 8.92165 17.9349 9.03253 17.6569C9.14405 17.378 9.45989 17.2419 9.73875 17.3534C10.0169 17.4642 10.1531 17.7807 10.0415 18.0588C9.95672 18.2718 9.75253 18.4015 9.53738 18.4015C9.47002 18.4015 9.40196 18.3892 9.336 18.3624ZM39.2022 16.8216C39.0682 16.5529 39.1761 16.227 39.4449 16.0923C39.7129 15.9575 40.0396 16.0662 40.1735 16.3349C40.3082 16.6029 40.1996 16.9288 39.9316 17.0636C39.8534 17.1026 39.7701 17.1215 39.689 17.1215C39.4898 17.1216 39.2978 17.0114 39.2022 16.8216ZM10.3776 16.0517C10.119 15.8996 10.0328 15.5664 10.1857 15.3078C10.3378 15.0492 10.671 14.9637 10.9296 15.1159C11.1881 15.2688 11.2736 15.6019 11.1214 15.8598C11.0201 16.0314 10.8389 16.1271 10.6528 16.1271C10.5594 16.127 10.4638 16.1031 10.3776 16.0517ZM37.9412 14.7232C37.7681 14.4784 37.8253 14.1394 38.0701 13.9656C38.3149 13.7917 38.6539 13.8497 38.8277 14.0938C38.8277 14.0938 38.8277 14.0938 38.827 14.0938C39.0009 14.3386 38.9437 14.6776 38.6989 14.8515C38.6032 14.9195 38.4939 14.9514 38.3845 14.9514C38.215 14.9514 38.0476 14.8725 37.9412 14.7232ZM11.7589 13.9271C11.5272 13.7373 11.4923 13.3955 11.6828 13.163C11.8726 12.9311 12.2145 12.8965 12.447 13.087C12.6796 13.2767 12.7136 13.6187 12.5238 13.8511C12.4158 13.9822 12.2602 14.0503 12.1029 14.0503C11.982 14.0503 11.8604 14.0105 11.7589 13.9271ZM36.3758 12.8399C36.1665 12.6241 36.1722 12.2808 36.3874 12.0714C36.6033 11.8627 36.9466 11.8678 37.1559 12.0837C37.3645 12.2988 37.3595 12.6429 37.1436 12.8523C37.0386 12.9543 36.9017 13.0051 36.7655 13.0051C36.6243 13.0051 36.4823 12.9501 36.3758 12.8399ZM13.4474 12.038C13.2467 11.8149 13.2649 11.4717 13.4873 11.271C13.7104 11.0704 14.0544 11.0885 14.2551 11.3116C14.4557 11.5339 14.4376 11.878 14.2145 12.0787C14.1102 12.1721 13.9805 12.2178 13.8508 12.2178C13.7023 12.2178 13.5546 12.1576 13.4474 12.038ZM34.5418 11.216C34.3028 11.0342 34.2556 10.6937 34.4375 10.4547C34.6185 10.2157 34.959 10.1686 35.1981 10.3497C35.4371 10.5307 35.4842 10.872 35.303 11.111C35.1959 11.2522 35.0336 11.3261 34.8692 11.3261C34.7555 11.326 34.6403 11.2898 34.5418 11.216ZM15.4017 10.4272C15.2372 10.1766 15.3075 9.83901 15.5581 9.67455C15.8095 9.51016 16.1463 9.5804 16.3107 9.83107C16.4752 10.0824 16.4049 10.4192 16.1543 10.5836C16.0622 10.6437 15.9587 10.6728 15.8566 10.6728C15.6798 10.6727 15.506 10.5858 15.4017 10.4272ZM32.4825 9.88894V9.88978C32.2188 9.74705 32.1203 9.41742 32.263 9.15297C32.405 8.88937 32.7353 8.79087 32.999 8.9336C33.2626 9.07626 33.3612 9.40582 33.2184 9.66956C33.1199 9.85132 32.933 9.95496 32.7404 9.95496C32.6527 9.95489 32.5643 9.93387 32.4825 9.88894ZM17.5783 9.1328C17.4537 8.85963 17.5747 8.53725 17.8478 8.4135C18.1208 8.28961 18.4432 8.40984 18.567 8.68301C18.6916 8.95603 18.5706 9.27841 18.2975 9.40223V9.40294C18.2244 9.43556 18.1483 9.45145 18.073 9.45145C17.8666 9.45145 17.6689 9.33333 17.5783 9.1328ZM30.2442 8.89444V8.89373C29.961 8.79368 29.8133 8.48297 29.9139 8.20052C30.0146 7.91801 30.3253 7.77021 30.6079 7.87019C30.8904 7.97095 31.0381 8.28096 30.9382 8.56411C30.8584 8.78651 30.6491 8.92558 30.4261 8.92558C30.3652 8.92551 30.3044 8.91546 30.2442 8.89444ZM19.9281 8.18674C19.8477 7.89783 20.0165 7.59858 20.3055 7.51744C20.5945 7.437 20.8944 7.60582 20.9748 7.8948C21.0559 8.18379 20.8872 8.48374 20.5982 8.56411C20.5489 8.57789 20.4997 8.58443 20.4511 8.58443C20.2135 8.58443 19.9955 8.42721 19.9281 8.18674ZM27.8807 8.25558C27.5859 8.19982 27.3925 7.91583 27.4476 7.62108C27.5033 7.32626 27.7873 7.13212 28.0829 7.18788C28.3777 7.24371 28.571 7.52763 28.5153 7.82245C28.4661 8.08317 28.2386 8.26493 27.9822 8.26493C27.9488 8.26493 27.9147 8.26205 27.8807 8.25558ZM22.3959 7.61454C22.3605 7.31683 22.5734 7.04585 22.8719 7.01112C23.1696 6.97561 23.4398 7.18858 23.4752 7.48629C23.51 7.78399 23.297 8.05413 22.9993 8.08971C22.9776 8.09259 22.9559 8.09414 22.9349 8.09414C22.6632 8.09407 22.4285 7.89051 22.3959 7.61454ZM25.4469 7.98755C25.147 7.97742 24.9123 7.72605 24.9225 7.42617C24.9319 7.12636 25.1832 6.89095 25.4832 6.90101C25.4832 6.90101 25.4832 6.90101 25.4832 6.90185C25.7831 6.91127 26.0185 7.16257 26.0084 7.46245C25.9982 7.75587 25.757 7.98762 25.4651 7.98762C25.4592 7.98755 25.4527 7.98755 25.4469 7.98755Z" fill="white"/>
<path d="M37.9477 24C37.9477 26.3638 36.0347 28.2802 33.6747 28.2802H16.1253C13.7654 28.2802 11.8524 26.3638 11.8524 24C11.8524 21.6362 13.7654 19.7198 16.1253 19.7198H33.6748C36.0346 19.7198 37.9477 21.6362 37.9477 24Z" fill="white"/>
<path opacity="0.1" d="M13.2916 23.9999C13.2916 21.6361 15.2046 19.7197 17.5645 19.7197H16.1253C13.7654 19.7197 11.8524 21.6361 11.8524 23.9999C11.8524 26.3638 13.7654 28.2801 16.1253 28.2801H17.5645C15.2046 28.2801 13.2916 26.3638 13.2916 23.9999Z" fill="black"/>
<path d="M33.6747 28.8075H16.1253C13.4785 28.8075 11.3251 26.6508 11.3251 23.9999C11.3251 21.3491 13.4785 19.1924 16.1253 19.1924H33.6748C36.3217 19.1924 38.4751 21.3491 38.4751 23.9999C38.4751 26.6508 36.3217 28.8075 33.6747 28.8075ZM16.1253 20.2471C14.06 20.2471 12.3798 21.9306 12.3798 23.9999C12.3798 26.0693 14.06 27.7528 16.1253 27.7528H33.6748C35.7402 27.7528 37.4204 26.0693 37.4204 23.9999C37.4204 21.9306 35.7402 20.2471 33.6748 20.2471H16.1253Z" fill="#FECF05"/>
<path d="M16.8595 21.3175H15.2065C14.9152 21.3175 14.6791 21.5535 14.6791 21.8448C14.6791 21.8579 14.6791 26.1549 14.6791 26.1549C14.6791 26.4462 14.9152 26.6823 15.2065 26.6823H16.8595C17.741 26.6823 18.4582 25.9603 18.4582 25.0729C18.4582 24.6605 18.303 24.2841 18.0487 23.999C18.3026 23.714 18.4582 23.3388 18.4582 22.9268C18.4582 22.0394 17.741 21.3175 16.8595 21.3175ZM16.8595 25.6275H15.7338V24.5181H16.8595C17.1595 24.5181 17.4035 24.767 17.4035 25.0729C17.4035 25.3787 17.1595 25.6275 16.8595 25.6275ZM16.8595 23.4815H15.7338V22.3722H16.8595C17.1595 22.3722 17.4035 22.621 17.4035 22.9268C17.4035 23.2327 17.1595 23.4815 16.8595 23.4815Z" fill="#EE3835"/>
<path d="M20.6916 21.3173C19.6655 21.3173 18.8307 22.1555 18.8307 23.1857V24.814C18.8307 25.8442 19.6655 26.6822 20.6916 26.6822C21.7178 26.6822 22.5527 25.8442 22.5527 24.814V23.1857C22.5527 22.1555 21.7178 21.3173 20.6916 21.3173ZM21.498 24.814C21.498 25.2626 21.1362 25.6276 20.6916 25.6276C20.2471 25.6276 19.8854 25.2626 19.8854 24.814V23.1857C19.8854 22.737 20.2471 22.3719 20.6916 22.3719C21.1362 22.3719 21.498 22.737 21.498 23.1857V24.814Z" fill="#EE3835"/>
<path d="M33.7153 23.4725H32.882C32.6917 23.4725 32.5309 23.2675 32.5309 23.0249V22.8196C32.5309 22.577 32.6917 22.3719 32.882 22.3719H34.1469C34.4382 22.3719 34.6743 22.1359 34.6743 21.8446C34.6743 21.5533 34.4382 21.3173 34.1469 21.3173H32.882C32.1069 21.3173 31.4763 21.9912 31.4763 22.8196V23.0249C31.4763 23.8533 32.1069 24.5272 32.882 24.5272H33.7153C33.9056 24.5272 34.0663 24.7321 34.0663 24.9747V25.18C34.0663 25.4226 33.9056 25.6276 33.7153 25.6276H32.2717C31.9805 25.6276 31.7444 25.8636 31.7444 26.1549C31.7444 26.4462 31.9805 26.6822 32.2717 26.6822H33.7153C34.4904 26.6822 35.121 26.0084 35.121 25.18V24.9747C35.121 24.1464 34.4904 23.4725 33.7153 23.4725Z" fill="#EE3835"/>
<path d="M24.8735 21.3173C23.8474 21.3173 23.0126 22.1555 23.0126 23.1857V26.1549C23.0126 26.4462 23.2487 26.6822 23.5399 26.6822C23.8312 26.6822 24.0673 26.4462 24.0673 26.1549V23.1857C24.0673 22.737 24.4289 22.3719 24.8735 22.3719C25.3182 22.3719 25.6799 22.737 25.6799 23.1857V26.1549C25.6799 26.4462 25.9161 26.6822 26.2073 26.6822C26.4985 26.6822 26.7346 26.4462 26.7346 26.1549V23.1857C26.7346 22.1555 25.8997 21.3173 24.8735 21.3173Z" fill="#EE3835"/>
<path d="M30.5488 21.3173C30.2575 21.3173 30.0214 21.5533 30.0214 21.8446V24.814C30.0214 25.2626 29.6598 25.6276 29.2153 25.6276C28.7706 25.6276 28.4088 25.2626 28.4088 24.814V21.8446C28.4088 21.5533 28.1727 21.3173 27.8815 21.3173C27.5902 21.3173 27.3541 21.5533 27.3541 21.8446V24.814C27.3541 25.8442 28.1891 26.6822 29.2153 26.6822C30.2414 26.6822 31.0761 25.8442 31.0761 24.814V21.8446C31.0761 21.5533 30.84 21.3173 30.5488 21.3173Z" fill="#EE3835"/>
<path d="M20.3886 34.7008C20.3461 34.7008 20.3032 34.6932 20.2623 34.6778L19.2114 34.2845L18.1605 34.6778C18.1196 34.6932 18.0768 34.7007 18.0342 34.7007C17.9595 34.7007 17.8853 34.6774 17.823 34.6323C17.7254 34.5615 17.6699 34.4467 17.6752 34.3264L17.7256 33.2086L17.0257 32.3339C16.9505 32.2398 16.9277 32.1143 16.965 31.9997C17.0023 31.8854 17.0947 31.7972 17.2111 31.7652L18.2931 31.4678L18.9115 30.5339C18.978 30.4334 19.0907 30.373 19.2114 30.373C19.3321 30.373 19.4448 30.4334 19.5113 30.5339L20.1296 31.4678L21.2118 31.7652C21.3282 31.7972 21.4207 31.8854 21.458 31.9997C21.4954 32.1143 21.4725 32.2398 21.3973 32.3339L20.6973 33.2086L20.7477 34.3265C20.753 34.4467 20.6975 34.5616 20.5999 34.6323C20.5375 34.6775 20.4634 34.7008 20.3886 34.7008Z" fill="#FECF05"/>
<path d="M26.0771 34.7008C26.0346 34.7008 25.9918 34.6932 25.9507 34.6778L24.8999 34.2845L23.8491 34.6778C23.8081 34.6932 23.7654 34.7007 23.7228 34.7007C23.648 34.7007 23.5738 34.6774 23.5115 34.6323C23.4139 34.5615 23.3585 34.4467 23.3639 34.3264L23.4143 33.2086L22.7143 32.3339C22.639 32.2398 22.6161 32.1143 22.6535 31.9997C22.6908 31.8854 22.7834 31.7972 22.8997 31.7652L23.9817 31.4678L24.6001 30.5339C24.6666 30.4334 24.7793 30.373 24.9 30.373C25.0207 30.373 25.1334 30.4334 25.1998 30.5339L25.8182 31.4678L26.9003 31.7652C27.0167 31.7972 27.1092 31.8854 27.1465 31.9997C27.1839 32.1143 27.161 32.2398 27.0857 32.3339L26.3858 33.2086L26.4362 34.3265C26.4415 34.4467 26.3862 34.5616 26.2885 34.6323C26.2261 34.6775 26.1519 34.7008 26.0771 34.7008Z" fill="#FECF05"/>
<path d="M31.7657 34.7008C31.7231 34.7008 31.6803 34.6932 31.6393 34.6778L30.5885 34.2845L29.5376 34.6778C29.4966 34.6932 29.4539 34.7007 29.4113 34.7007C29.3366 34.7007 29.2624 34.6774 29.2 34.6323C29.1025 34.5615 29.047 34.4467 29.0522 34.3264L29.1027 33.2086L28.4027 32.3339C28.3275 32.2398 28.3046 32.1143 28.342 31.9997C28.3793 31.8854 28.4717 31.7972 28.5881 31.7652L29.6702 31.4678L30.2885 30.5339C30.355 30.4334 30.4677 30.373 30.5885 30.373C30.7092 30.373 30.8219 30.4334 30.8883 30.5339L31.5068 31.4678L32.5889 31.7652C32.7052 31.7972 32.7977 31.8854 32.8351 31.9997C32.8725 32.1143 32.8495 32.2398 32.7743 32.3339L32.0743 33.2086L32.1247 34.3265C32.13 34.4467 32.0746 34.5616 31.9768 34.6323C31.9145 34.6775 31.8404 34.7008 31.7657 34.7008Z" fill="#FECF05"/>
<path d="M20.227 17.2452C20.1846 17.2452 20.1417 17.2377 20.1008 17.2222L19.0499 16.829L17.999 17.2222C17.958 17.2377 17.9152 17.2451 17.8727 17.2451C17.7979 17.2451 17.7238 17.2218 17.6615 17.1768C17.5638 17.106 17.5083 16.9912 17.5137 16.8709L17.5641 15.753L16.8641 14.8784C16.7889 14.7843 16.766 14.6588 16.8034 14.5443C16.8406 14.43 16.9331 14.3417 17.0495 14.3097L18.1315 14.0123L18.7499 13.0783C18.8164 12.9779 18.9291 12.9175 19.0498 12.9175C19.1705 12.9175 19.2832 12.9779 19.3497 13.0783L19.968 14.0123L21.0502 14.3097C21.1665 14.3417 21.2591 14.43 21.2963 14.5443C21.3337 14.6588 21.3108 14.7843 21.2356 14.8784L20.5356 15.753L20.586 16.8709C20.5913 16.9912 20.5358 17.1061 20.4383 17.1768C20.376 17.2219 20.3019 17.2452 20.227 17.2452Z" fill="#FECF05"/>
<path d="M31.9272 17.2452C31.8847 17.2452 31.8419 17.2377 31.8009 17.2222L30.7501 16.829L29.6992 17.2222C29.6581 17.2377 29.6154 17.2451 29.5729 17.2451C29.4982 17.2451 29.424 17.2218 29.3616 17.1768C29.264 17.106 29.2085 16.9912 29.2138 16.8709L29.2643 15.753L28.5643 14.8784C28.489 14.7843 28.4662 14.6588 28.5035 14.5443C28.5408 14.43 28.6333 14.3417 28.7497 14.3097L29.8318 14.0123L30.45 13.0783C30.5166 12.9779 30.6293 12.9175 30.7501 12.9175C30.8707 12.9175 30.9835 12.9779 31.0499 13.0783L31.6683 14.0123L32.7505 14.3097C32.8668 14.3417 32.9593 14.43 32.9966 14.5443C33.034 14.6588 33.0111 14.7843 32.9359 14.8784L32.2359 15.753L32.2863 16.8709C32.2916 16.9912 32.2361 17.1061 32.1384 17.1768C32.0761 17.2219 32.002 17.2452 31.9272 17.2452Z" fill="#FECF05"/>
<path d="M26.9136 17.6981C26.8409 17.6981 26.7677 17.6852 26.6975 17.6588L24.8999 16.9862L23.1022 17.6588C23.0321 17.6852 22.959 17.698 22.8862 17.698C22.7582 17.698 22.6314 17.658 22.5247 17.5811C22.3577 17.46 22.2629 17.2636 22.2721 17.0579L22.3583 15.1456L21.1607 13.6495C21.032 13.4883 20.9929 13.2737 21.0568 13.0778C21.1207 12.8822 21.2789 12.7313 21.4779 12.6767L23.329 12.1677L24.3868 10.57C24.5005 10.3982 24.6933 10.2949 24.8998 10.2949C25.1063 10.2949 25.2991 10.3982 25.4127 10.57L26.4706 12.1677L28.3217 12.6767C28.5209 12.7313 28.6791 12.8822 28.743 13.0778C28.8069 13.2737 28.7676 13.4883 28.639 13.6495L27.4416 15.1456L27.5278 17.0581C27.5369 17.2637 27.4422 17.4603 27.2751 17.5811C27.1685 17.6583 27.0417 17.6981 26.9136 17.6981Z" fill="#FECF05"/>
<path opacity="0.1" d="M13.4924 36.728C10.0984 33.3281 8.2293 28.808 8.2293 24C8.2293 19.192 10.0984 14.6719 13.4924 11.272C16.7328 8.02613 20.9931 6.17388 25.5492 6.0128C25.3334 6.00513 25.1171 6 24.9 6C20.1003 6 15.5879 7.87235 12.1939 11.272C8.79995 14.6719 6.93091 19.192 6.93091 24C6.93091 28.808 8.80003 33.3281 12.194 36.728C15.5879 40.1276 20.1003 42 24.9 42C25.1171 42 25.3334 41.9949 25.5492 41.9872C20.9931 41.8261 16.7328 39.9739 13.4924 36.728Z" fill="black"/>
</g>
<defs>
<clipPath id="clip0_499_6793">
<rect width="36" height="36" fill="white" transform="translate(6.90002 6)"/>
</clipPath>
</defs>
</svg>
