<svg width="49" height="48" viewBox="0 0 49 48" fill="none" xmlns="http://www.w3.org/2000/svg">
<g clip-path="url(#clip0_499_6762)">
<path d="M24.28 21.0912V6.36211C24.28 6.16298 24.117 6 23.9178 6H6.71582C6.51662 6 6.35364 6.16298 6.35364 6.36211V29.0016C6.35364 29.2008 6.51662 29.3637 6.71582 29.3637H19.441C19.7061 25.9229 21.5648 22.9202 24.28 21.0912Z" fill="#E9EAEC"/>
<path d="M17.2888 22.2555H15.8603V19.9025C15.8603 19.6024 15.6171 19.3593 15.3171 19.3593C15.0171 19.3593 14.7738 19.6024 14.7738 19.9025V22.2555H13.3447C13.0446 22.2555 12.8014 22.4987 12.8014 22.7988C12.8014 23.0989 13.0446 23.3421 13.3447 23.3421H17.2888C17.5888 23.3421 17.8321 23.0989 17.8321 22.7988C17.8321 22.4987 17.5888 22.2555 17.2888 22.2555Z" fill="#005289"/>
<path opacity="0.1" d="M7.78492 29.0017V6.36211C7.78492 6.16298 7.9479 6 8.1471 6H6.71582C6.51662 6 6.35364 6.16298 6.35364 6.36211V29.0016C6.35364 29.2008 6.51662 29.3637 6.71582 29.3637H8.1471C7.9479 29.3638 7.78492 29.2009 7.78492 29.0017Z" fill="black"/>
<path d="M15.3273 12.2162C15.3873 12.2162 15.4469 12.2391 15.4928 12.2845L19.9268 16.7001C20.4287 17.2106 20.7038 17.8823 20.7038 18.5926C20.7038 20.0844 19.484 21.298 17.9847 21.298C17.2889 21.298 16.6266 21.036 16.1198 20.5602L15.3172 19.8064L14.5143 20.5602C14.0074 21.036 13.3449 21.298 12.6496 21.298C11.15 21.298 9.93015 20.0844 9.93015 18.5926C9.93015 17.8048 10.2752 17.0582 10.8768 16.5423L15.1622 12.2842C15.2076 12.2389 15.2675 12.2162 15.3273 12.2162Z" fill="#0059AD"/>
<g opacity="0.1">
<path d="M11.3531 18.9317C11.3531 18.1438 11.6982 17.3973 12.2997 16.8814L16.2086 12.9976L15.4927 12.2845C15.4469 12.2391 15.3872 12.2162 15.3272 12.2162C15.2674 12.2162 15.2075 12.2389 15.162 12.2842L10.8765 16.5423C10.275 17.0582 9.92993 17.8048 9.92993 18.5926C9.92993 20.0844 11.1498 21.298 12.6493 21.298C12.6837 21.298 12.7178 21.2969 12.752 21.2956C11.9184 20.8328 11.3531 19.9469 11.3531 18.9317Z" fill="black"/>
</g>
<path d="M11.0231 10.6611L9.95733 7.71263C9.78991 7.24962 9.4297 7.21362 9.32332 7.21362C9.21694 7.21362 8.85672 7.24962 8.68931 7.7127L7.62351 10.6611C7.52149 10.9433 7.6676 11.2547 7.94976 11.3568C8.01079 11.3788 8.07309 11.3892 8.1344 11.3892C8.35673 11.3892 8.56542 11.2517 8.64536 11.0305L8.76201 10.7078H9.88462L10.0013 11.0305C10.1032 11.3127 10.4147 11.4586 10.6969 11.3568C10.979 11.2547 11.1251 10.9433 11.0231 10.6611ZM9.15478 9.62126L9.32332 9.15488L9.49193 9.62126H9.15478Z" fill="#005289"/>
<path d="M24.4202 36.5089L22.1379 38.598C23.5543 39.9947 25.3218 41.0361 27.2962 41.5783L27.9651 38.5568C26.6199 38.1608 25.4095 37.4501 24.4202 36.5089Z" fill="#EE3835"/>
<path d="M27.965 21.8243L27.2961 18.8027C25.3216 19.3451 23.5543 20.3863 22.1378 21.783L24.4202 23.8721C25.4095 22.931 26.6197 22.2202 27.965 21.8243Z" fill="#EE3835"/>
<path d="M21.7092 30.1906C21.7092 29.4856 21.7935 28.8005 21.9514 28.144L18.9987 27.2123C18.7513 28.1637 18.6195 29.1618 18.6195 30.1906C18.6195 31.2195 18.7514 32.2174 18.9987 33.1689L21.9514 32.2371C21.7935 31.5807 21.7092 30.8955 21.7092 30.1906Z" fill="#EE3835"/>
<path d="M32.9008 38.5568L33.5698 41.5783C35.5442 41.036 37.3116 39.9946 38.728 38.598L36.4456 36.5089C35.4563 37.45 34.2461 38.1608 32.9008 38.5568Z" fill="#EE3835"/>
<path d="M41.8671 27.2123L38.9145 28.144C39.0724 28.8006 39.1567 29.4856 39.1567 30.1906C39.1567 30.8954 39.0724 31.5805 38.9145 32.2371L41.8671 33.1688C42.1145 32.2174 42.2463 31.2194 42.2463 30.1906C42.2463 29.1618 42.1145 28.1637 41.8671 27.2123Z" fill="#EE3835"/>
<path d="M36.4458 23.8721L38.728 21.7831C37.3116 20.3865 35.5441 19.3451 33.5697 18.8027L32.9008 21.8242C34.2461 22.2201 35.4563 22.9309 36.4458 23.8721Z" fill="#EE3835"/>
<path d="M30.4329 21.4697C31.2901 21.4697 32.1182 21.5939 32.9008 21.8242L33.5697 18.8028C32.5707 18.5284 31.5191 18.3811 30.4329 18.3811C29.3467 18.3811 28.2951 18.5284 27.2961 18.8028L27.965 21.8243C28.7475 21.5938 29.5757 21.4697 30.4329 21.4697Z" fill="#D0D5D5"/>
<path d="M24.4201 23.8722L22.1378 21.7831C20.6451 23.255 19.5423 25.1208 18.9986 27.2123L21.9513 28.144C22.3506 26.485 23.2236 25.0105 24.4201 23.8722Z" fill="#D0D5D5"/>
<path d="M38.9145 28.1439L41.8671 27.2122C41.3235 25.1207 40.2207 23.255 38.728 21.7831L36.4457 23.8721C37.6422 25.0104 38.5153 26.4849 38.9145 28.1439Z" fill="#D0D5D5"/>
<path d="M36.4457 36.5088L38.728 38.5979C40.2206 37.126 41.3235 35.2602 41.8672 33.1688L38.9146 32.2371C38.5153 33.896 37.6422 35.3707 36.4457 36.5088Z" fill="#D0D5D5"/>
<path d="M21.9514 32.2371L18.9987 33.1689C19.5424 35.2603 20.6452 37.1261 22.1379 38.598L24.4202 36.5089C23.2237 35.3707 22.3506 33.8961 21.9514 32.2371Z" fill="#D0D5D5"/>
<path d="M30.4329 38.9113C29.5757 38.9113 28.7477 38.787 27.9651 38.5568L27.2963 41.5783C28.2953 41.8526 29.3469 42 30.4329 42C31.5191 42 32.5708 41.8526 33.5698 41.5782L32.9009 38.5568C32.1182 38.7871 31.2902 38.9113 30.4329 38.9113Z" fill="#D0D5D5"/>
<path d="M30.4327 38.9175C35.2506 38.9175 39.1563 35.021 39.1563 30.2143C39.1563 25.4076 35.2506 21.511 30.4327 21.511C25.6147 21.511 21.709 25.4076 21.709 30.2143C21.709 35.021 25.6147 38.9175 30.4327 38.9175Z" fill="white"/>
<path opacity="0.1" d="M22.7881 30.2145C22.7881 25.5888 26.4056 21.8066 30.9724 21.5285C30.7938 21.5177 30.6141 21.5115 30.4328 21.5115C25.6148 21.5115 21.7091 25.4081 21.7091 30.2145C21.7091 35.021 25.6148 38.9177 30.4328 38.9177C30.6141 38.9177 30.7938 38.9114 30.9724 38.9006C26.4056 38.6226 22.7881 34.8403 22.7881 30.2145Z" fill="black"/>
<path d="M30.4329 39.4609C25.3231 39.4609 21.166 35.313 21.166 30.2145C21.166 25.1161 25.3231 20.9681 30.4329 20.9681C35.5428 20.9681 39.7 25.1161 39.7 30.2145C39.6999 35.313 35.5428 39.4609 30.4329 39.4609ZM30.4329 22.0547C25.9222 22.0547 22.2524 25.7152 22.2524 30.2145C22.2524 34.7139 25.9222 38.3744 30.4329 38.3744C34.9437 38.3744 38.6134 34.714 38.6134 30.2145C38.6134 25.7152 34.9437 22.0547 30.4329 22.0547Z" fill="#E9EAEC"/>
<path d="M30.7294 37.613C30.4402 37.613 30.1997 37.3851 30.1871 37.0933C30.1741 36.7935 30.4066 36.54 30.7064 36.527C30.7744 36.524 30.8422 36.5201 30.9097 36.5152C31.2091 36.4934 31.4694 36.7177 31.4914 37.0171C31.5135 37.3163 31.2888 37.5767 30.9895 37.5987C30.9111 37.6045 30.8324 37.609 30.7533 37.6125C30.7454 37.6129 30.7374 37.613 30.7294 37.613ZM28.9083 37.4503C28.8687 37.4503 28.8285 37.4458 28.7882 37.4368C28.7108 37.4192 28.6338 37.4005 28.5573 37.3808C28.267 37.3054 28.0927 37.0089 28.168 36.7184C28.2434 36.4281 28.5399 36.2539 28.8304 36.3291C28.8956 36.3461 28.9613 36.362 29.0274 36.3769C29.3201 36.443 29.5038 36.7338 29.4377 37.0265C29.3808 37.2788 29.1566 37.4503 28.9083 37.4503ZM32.7397 37.2241C32.5163 37.2241 32.3069 37.0851 32.2278 36.8625C32.1273 36.5798 32.2751 36.2691 32.5578 36.1687C32.6216 36.1461 32.6849 36.1225 32.7478 36.0979C33.0272 35.9882 33.3423 36.126 33.4518 36.4054C33.5613 36.6848 33.4235 36.9999 33.1442 37.1094C33.0706 37.1382 32.9963 37.166 32.9215 37.1926C32.8615 37.214 32.8001 37.2241 32.7397 37.2241ZM26.9999 36.7052C26.908 36.7052 26.8148 36.6819 26.7294 36.6327C26.6605 36.5931 26.5923 36.5524 26.525 36.5106C26.2699 36.3525 26.1913 36.0176 26.3494 35.7626C26.5075 35.5076 26.8424 35.429 27.0974 35.587C27.1548 35.6226 27.2129 35.6574 27.2715 35.691C27.5316 35.8407 27.621 36.173 27.4713 36.433C27.3707 36.6076 27.1879 36.7052 26.9999 36.7052ZM34.5452 36.2587C34.3796 36.2587 34.216 36.1833 34.1094 36.0403C33.9299 35.7999 33.9794 35.4594 34.2199 35.2801C34.2741 35.2396 34.3278 35.1983 34.3807 35.1562C34.6155 34.9692 34.9573 35.0082 35.1441 35.2429C35.3309 35.4777 35.292 35.8194 35.0573 36.0062C34.9955 36.0554 34.9329 36.1036 34.8696 36.1509C34.7722 36.2236 34.6582 36.2587 34.5452 36.2587ZM25.397 35.4312C25.2517 35.4312 25.1068 35.3734 24.9997 35.2587C24.9457 35.2008 24.8926 35.142 24.8404 35.0823C24.6429 34.8564 24.6659 34.5132 24.8917 34.3157C25.1176 34.1182 25.4607 34.1413 25.6583 34.3671C25.7027 34.418 25.748 34.4679 25.7941 34.5174C25.9988 34.7367 25.9869 35.0805 25.7676 35.2852C25.6629 35.3829 25.5298 35.4312 25.397 35.4312ZM35.9867 34.8057C35.8753 34.8057 35.7628 34.7715 35.666 34.7005C35.424 34.5232 35.3716 34.1833 35.5489 33.9412C35.5889 33.8866 35.6282 33.8313 35.6665 33.7755C35.8362 33.528 36.1744 33.4648 36.4218 33.6346C36.6693 33.8042 36.7324 34.1423 36.5627 34.3898C36.5179 34.4552 36.4721 34.5197 36.4253 34.5835C36.3189 34.7287 36.1538 34.8057 35.9867 34.8057ZM24.2388 33.7437C24.0371 33.7437 23.8434 33.6309 23.7495 33.4374C23.7151 33.3662 23.6817 33.2946 23.6494 33.2222C23.5274 32.9481 23.6507 32.6269 23.9248 32.505C24.199 32.3829 24.5201 32.5062 24.6421 32.7803C24.6694 32.8418 24.6979 32.9028 24.7272 32.9633C24.8581 33.2333 24.7454 33.5583 24.4754 33.6892C24.3991 33.7262 24.3183 33.7437 24.2388 33.7437ZM36.938 32.9922C36.8793 32.9922 36.8196 32.9826 36.7608 32.9623C36.4772 32.8645 36.3266 32.5553 36.4244 32.2717C36.4466 32.2077 36.4676 32.1432 36.4876 32.0784C36.5763 31.7917 36.8805 31.6312 37.1671 31.7199C37.4538 31.8085 37.6143 32.1127 37.5256 32.3994C37.5022 32.4754 37.4775 32.5508 37.4516 32.6259C37.374 32.8508 37.1634 32.9922 36.938 32.9922ZM23.6313 31.789C23.3671 31.789 23.1354 31.596 23.0948 31.3268C23.083 31.2487 23.0723 31.1701 23.0631 31.0911C23.0279 30.7931 23.2409 30.5231 23.5389 30.4879C23.8369 30.4525 24.1069 30.6657 24.1421 30.9638C24.15 31.0311 24.159 31.0979 24.1691 31.1646C24.2139 31.4612 24.0097 31.7381 23.713 31.7829C23.6856 31.7871 23.6583 31.789 23.6313 31.789ZM37.3077 30.9779C37.3019 30.9779 37.296 30.9778 37.2901 30.9776C36.9902 30.9681 36.7549 30.7173 36.7644 30.4173C36.7666 30.3499 36.7677 30.2822 36.7677 30.2145V30.2003C36.7677 29.9002 37.0109 29.6571 37.311 29.6571C37.6111 29.6571 37.8542 29.9002 37.8542 30.2003V30.2145C37.8542 30.2938 37.8529 30.3729 37.8504 30.452C37.841 30.746 37.5997 30.9779 37.3077 30.9779ZM23.6304 29.7418C23.6038 29.7418 23.5769 29.7398 23.5498 29.7357C23.253 29.6916 23.0482 29.4152 23.0924 29.1185C23.1041 29.04 23.117 28.9618 23.1312 28.8841C23.1848 28.5889 23.468 28.3926 23.7628 28.4467C24.058 28.5003 24.2538 28.7831 24.2002 29.0783C24.1881 29.1445 24.1771 29.2113 24.1671 29.2783C24.127 29.548 23.8951 29.7418 23.6304 29.7418ZM37.0642 28.9313C36.8258 28.9313 36.6072 28.7733 36.5408 28.5323C36.5228 28.4673 36.5039 28.4024 36.4838 28.3382C36.3946 28.0518 36.5545 27.7473 36.841 27.658C37.1275 27.5692 37.432 27.7287 37.5212 28.0151C37.5448 28.0907 37.5671 28.1669 37.5882 28.2435C37.668 28.5327 37.4981 28.8318 37.209 28.9116C37.1606 28.9249 37.1119 28.9313 37.0642 28.9313ZM24.2318 27.785C24.1525 27.785 24.0721 27.7676 23.996 27.7307C23.7258 27.6002 23.6125 27.2755 23.743 27.0053C23.7774 26.9339 23.8131 26.8632 23.8497 26.7929C23.9886 26.5269 24.3168 26.4238 24.5827 26.5628C24.8486 26.7018 24.9517 27.03 24.8128 27.2959C24.7814 27.356 24.7509 27.4167 24.7214 27.4778C24.6277 27.6719 24.4337 27.785 24.2318 27.785ZM36.2296 27.0623C36.0507 27.0623 35.8755 26.974 35.7718 26.8123C35.7353 26.7554 35.698 26.6993 35.6598 26.6437C35.4897 26.3966 35.5522 26.0583 35.7993 25.8882C36.0465 25.7181 36.3847 25.7806 36.5548 26.0277C36.5997 26.0929 36.6436 26.1588 36.6864 26.2255C36.8484 26.4781 36.775 26.8142 36.5224 26.9762C36.4316 27.0344 36.33 27.0623 36.2296 27.0623ZM25.3877 26.0939C25.2553 26.0939 25.1225 26.0458 25.0179 25.9485C24.7982 25.7443 24.7856 25.4006 24.9899 25.1808C25.0438 25.1229 25.0985 25.0658 25.1541 25.0096C25.3652 24.7964 25.7093 24.7946 25.9223 25.0056C26.1356 25.2167 26.1373 25.5607 25.9263 25.774C25.8787 25.822 25.8318 25.8709 25.7857 25.9205C25.6786 26.0356 25.5333 26.0939 25.3877 26.0939ZM34.8792 25.5228C34.7551 25.5228 34.6304 25.4805 34.5283 25.3941C34.4768 25.3504 34.4246 25.3076 34.3717 25.2657C34.1365 25.0794 34.0969 24.7377 34.2832 24.5025C34.4696 24.2674 34.8113 24.2277 35.0464 24.4142C35.1086 24.4635 35.1701 24.5137 35.2306 24.5651C35.4596 24.7591 35.4879 25.1018 35.294 25.3308C35.1866 25.4575 35.0333 25.5228 34.8792 25.5228ZM26.9887 24.8174C26.8012 24.8174 26.6187 24.7201 26.518 24.5461C26.3678 24.2864 26.4565 23.9541 26.7162 23.8038C26.7846 23.7642 26.8536 23.7259 26.9232 23.6884C27.1876 23.5466 27.5169 23.6458 27.6588 23.9102C27.8006 24.1746 27.7014 24.5038 27.437 24.6458C27.3774 24.6776 27.3185 24.7105 27.2602 24.7442C27.1747 24.7939 27.0811 24.8174 26.9887 24.8174ZM33.1368 24.4469C33.0656 24.4469 32.9932 24.4329 32.9235 24.4031C32.8615 24.3766 32.7988 24.351 32.7356 24.3264C32.456 24.2175 32.3176 23.9027 32.4264 23.623C32.5353 23.3434 32.8501 23.2052 33.1298 23.3139C33.204 23.3428 33.2776 23.3728 33.3506 23.404C33.6265 23.5219 33.7545 23.8411 33.6366 24.1171C33.5484 24.3233 33.3477 24.4469 33.1368 24.4469ZM28.8928 24.0688C28.645 24.0688 28.4211 23.898 28.3636 23.6462C28.297 23.3536 28.48 23.0624 28.7726 22.9958C28.8495 22.9782 28.9269 22.9618 29.0048 22.9467C29.2994 22.8895 29.5846 23.0815 29.6419 23.376C29.6993 23.6705 29.5071 23.9557 29.2127 24.0131C29.1461 24.0261 29.0799 24.0401 29.0141 24.0552C28.9735 24.0644 28.9328 24.0688 28.8928 24.0688ZM31.1547 23.9335C31.1358 23.9335 31.1169 23.9325 31.0978 23.9305C31.0307 23.9235 30.9633 23.9176 30.8956 23.9127C30.5963 23.8911 30.3713 23.631 30.3929 23.3317C30.4146 23.0325 30.6747 22.8071 30.9739 22.829C31.053 22.8347 31.1318 22.8417 31.2102 22.8498C31.5086 22.8809 31.7254 23.1479 31.6944 23.4464C31.6653 23.7257 31.4295 23.9335 31.1547 23.9335Z" fill="#D0D5D5"/>
<path d="M30.4245 34.5754C30.3753 34.5754 30.3263 34.5566 30.2888 34.5194L26.6532 30.8991C26.2418 30.4805 26.0161 29.9298 26.0161 29.3473C26.0161 28.1242 27.0164 27.1292 28.2456 27.1292C28.8161 27.1292 29.3591 27.344 29.7748 27.7341L30.4327 28.3522L31.0911 27.7341C31.5068 27.3439 32.0499 27.1292 32.6201 27.1292C33.8496 27.1292 34.8497 28.1242 34.8497 29.3473C34.8497 29.9933 34.5669 30.6054 34.0736 31.0285L30.5599 34.5196C30.5227 34.5568 30.4735 34.5754 30.4245 34.5754Z" fill="#EE3835"/>
<g opacity="0.1">
<path d="M27.9069 30.5369C27.4955 30.1184 27.2698 29.5677 27.2698 28.9852C27.2698 28.2099 27.672 27.5267 28.2793 27.1299C28.2681 27.1298 28.2569 27.1292 28.2456 27.1292C27.0164 27.1292 26.0162 28.1242 26.0162 29.3473C26.0162 29.9298 26.2418 30.4805 26.6533 30.8991L30.2889 34.5194C30.3264 34.5566 30.3754 34.5754 30.4246 34.5754C30.4736 34.5754 30.5227 34.5568 30.5601 34.5196L31.2341 33.85L27.9069 30.5369Z" fill="black"/>
</g>
</g>
<defs>
<clipPath id="clip0_499_6762">
<rect width="36" height="36" fill="white" transform="translate(6.29999 6)"/>
</clipPath>
</defs>
</svg>
