<svg width="32" height="32" viewBox="0 0 32 32" fill="none" xmlns="http://www.w3.org/2000/svg">
<g clip-path="url(#clip0_499_6543)">
<path d="M19.3418 25.6186L23.69 24.2023C24.2584 24.0171 24.5692 23.4058 24.3839 22.8372L24.3835 22.8362C24.1984 22.2684 23.5885 21.9581 23.0207 22.143L23.0188 22.1436C23.5873 21.9585 23.8981 21.3471 23.7127 20.7785L23.7124 20.7776C23.5273 20.2097 22.9174 19.8995 22.3496 20.0844C22.9181 19.8992 23.2289 19.2878 23.0435 18.7192L23.0432 18.7183C22.8581 18.1505 22.2482 17.8402 21.6805 18.0251C22.2489 17.84 22.5597 17.2286 22.3743 16.66L22.3741 16.659C22.189 16.0912 21.579 15.7809 21.0113 15.9658L15.4883 17.2589C15.2774 15.4437 15.5735 14.7095 15.5735 14.7095C15.913 14.9843 16.3011 15.1072 16.704 15.0649C16.8717 15.0472 17.041 15.0001 17.2012 14.9265L17.2011 14.9262C17.4256 14.8235 17.6327 14.6684 17.7931 14.4704C17.991 14.226 17.965 13.8735 17.7373 13.6638C17.7373 13.6638 15.9217 12.3721 15.1186 12.3002C14.5346 12.248 13.7545 12.8369 13.229 13.6624C12.6554 14.5635 11.7551 17.1808 11.893 20.5091L7.5625 21.7554L9.56162 27.5315L13.6645 25.5064C14.1404 25.9426 14.6656 26.2143 15.2304 26.344" stroke="white" stroke-width="0.9375" stroke-miterlimit="10" stroke-linecap="round" stroke-linejoin="round"/>
<path d="M19.5762 22.1278L19.5759 22.1269C19.3905 21.5583 19.7012 20.9469 20.2697 20.7617L22.3496 20.0843C22.9173 19.8994 23.5273 20.2097 23.7124 20.7775L23.7127 20.7785C23.8981 21.3471 23.5873 21.9584 23.0188 22.1436L20.939 22.821C20.3712 23.0059 19.7613 22.6956 19.5762 22.1278Z" stroke="white" stroke-width="0.9375" stroke-miterlimit="10" stroke-linecap="round" stroke-linejoin="round"/>
<path d="M18.9067 20.0686L18.9064 20.0677C18.721 19.4991 19.0317 18.8877 19.6002 18.7025L21.6801 18.0251C22.2478 17.8402 22.8578 18.1505 23.0429 18.7183L23.0432 18.7193C23.2286 19.2879 22.9178 19.8992 22.3493 20.0844L20.2695 20.7618C19.7017 20.9467 19.0918 20.6365 18.9067 20.0686Z" stroke="white" stroke-width="0.9375" stroke-miterlimit="10" stroke-linecap="round" stroke-linejoin="round"/>
<path d="M18.2376 18.0093L18.2373 18.0083C18.052 17.4397 18.3627 16.8284 18.9312 16.6432L21.0111 15.9658C21.5788 15.7809 22.1887 16.0912 22.3739 16.659L22.3742 16.6599C22.5595 17.2285 22.2488 17.8399 21.6803 18.0251L19.6004 18.7025C19.0327 18.8873 18.4228 18.5771 18.2376 18.0093Z" stroke="white" stroke-width="0.9375" stroke-miterlimit="10" stroke-linecap="round" stroke-linejoin="round"/>
<path d="M20.2469 24.1863L20.2466 24.1853C20.0612 23.6167 20.3719 23.0054 20.9404 22.8202L23.0203 22.1428C23.588 21.9579 24.198 22.2682 24.3831 22.836L24.3834 22.8369C24.5688 23.4055 24.258 24.0169 23.6895 24.2021L21.6097 24.8795C21.0419 25.0644 20.432 24.7541 20.2469 24.1863Z" stroke="white" stroke-width="0.9375" stroke-miterlimit="10" stroke-linecap="round" stroke-linejoin="round"/>
<path d="M12.848 24.4061C13.0795 24.816 13.3264 25.2002 13.6644 25.5066" stroke="white" stroke-width="0.9375" stroke-miterlimit="10" stroke-linecap="round" stroke-linejoin="round"/>
<path d="M11.893 20.509C11.9278 21.0949 11.919 21.1349 11.9689 21.6354" stroke="white" stroke-width="0.9375" stroke-miterlimit="10" stroke-linecap="round" stroke-linejoin="round"/>
<path d="M20.4699 7.1378C21.8684 6.4738 22.7759 5.45933 22.497 4.87192C22.2181 4.28452 20.8583 4.34661 19.4599 5.01061C18.0615 5.67461 17.1539 6.68908 17.4328 7.27648C17.7117 7.86389 19.0715 7.8018 20.4699 7.1378Z" stroke="white" stroke-width="0.9375" stroke-miterlimit="10" stroke-linecap="round" stroke-linejoin="round"/>
<path d="M18.2184 8.98231C18.4903 9.57303 19.8457 9.51598 21.2456 8.85486C22.6454 8.19373 23.5598 7.17898 23.2878 6.58827L22.4998 4.87695C22.7718 5.46767 21.8575 6.48247 20.4576 7.14355C19.0577 7.80463 17.7024 7.86167 17.4304 7.271L18.2184 8.98231Z" stroke="white" stroke-width="0.9375" stroke-miterlimit="10" stroke-linecap="round" stroke-linejoin="round"/>
</g>
<defs>
<clipPath id="clip0_499_6543">
<rect width="24" height="24" fill="white" transform="translate(4 4)"/>
</clipPath>
</defs>
</svg>
