<svg width="32" height="32" viewBox="0 0 32 32" fill="none" xmlns="http://www.w3.org/2000/svg">
<g clip-path="url(#clip0_499_6613)">
<path d="M26.4207 14.1376H21.9474C22.1731 13.858 22.2959 13.5127 22.2959 13.1484C22.2959 12.7267 22.1317 12.3302 21.8336 12.0321L19.4159 9.6145C19.2329 9.4315 18.9361 9.4315 18.753 9.6145C18.5699 9.79755 18.5699 10.0944 18.753 10.2775L21.1706 12.6951C21.2917 12.8162 21.3584 12.9772 21.3584 13.1484C21.3584 13.3196 21.2917 13.4807 21.1706 13.6017L13.6009 21.1714C13.4798 21.2925 13.3188 21.3592 13.1476 21.3592C12.9764 21.3592 12.8153 21.2925 12.6943 21.1714L5.12455 13.6017C4.87457 13.3517 4.87457 12.945 5.12455 12.695L12.6943 5.12528C12.8153 5.0042 12.9764 4.9375 13.1476 4.9375C13.3188 4.9375 13.4798 5.0042 13.6009 5.12528L15.7699 7.29423C15.953 7.47728 16.2497 7.47728 16.4328 7.29423C16.6159 7.11119 16.6159 6.81437 16.4328 6.63128L14.2639 4.46238C13.9657 4.1642 13.5693 4 13.1476 4C12.7259 4 12.3295 4.1642 12.0314 4.46238L4.4616 12.0321C3.84613 12.6476 3.84613 13.6491 4.4616 14.2646L12.0313 21.8343C12.3295 22.1325 12.7259 22.2967 13.1475 22.2967C13.5119 22.2967 13.8573 22.1738 14.1368 21.9482V26.4214C14.1368 27.2919 14.8449 28 15.7154 28H26.4206C27.291 28 27.9992 27.2919 27.9992 26.4214V15.7162C27.9993 14.8458 27.2911 14.1376 26.4207 14.1376ZM27.0618 26.4214C27.0618 26.7749 26.7742 27.0625 26.4207 27.0625H15.7154C15.362 27.0625 15.0743 26.7749 15.0743 26.4214V21.0238L21.0231 15.0751H26.4207C26.7742 15.0751 27.0618 15.3627 27.0618 15.7162V26.4214Z" fill="white"/>
<path d="M21.068 19.4584C20.1801 19.4584 19.4577 20.1808 19.4577 21.0687C19.4577 21.9567 20.1801 22.6791 21.068 22.6791C21.956 22.6791 22.6784 21.9567 22.6784 21.0687C22.6784 20.1808 21.956 19.4584 21.068 19.4584ZM21.068 21.7416C20.697 21.7416 20.3952 21.4397 20.3952 21.0687C20.3952 20.6977 20.697 20.3959 21.068 20.3959C21.4391 20.3959 21.7409 20.6977 21.7409 21.0687C21.7409 21.4397 21.439 21.7416 21.068 21.7416Z" fill="white"/>
<path d="M14.287 12.0095C13.6591 11.3816 12.6376 11.3816 12.0097 12.0095C11.3818 12.6374 11.3818 13.659 12.0097 14.2869C12.3236 14.6008 12.7359 14.7578 13.1483 14.7578C13.5607 14.7578 13.9731 14.6007 14.287 14.2869C14.5912 13.9827 14.7587 13.5783 14.7587 13.1482C14.7587 12.7181 14.5912 12.3136 14.287 12.0095ZM13.6241 13.624C13.3618 13.8863 12.9349 13.8863 12.6726 13.624C12.4103 13.3616 12.4103 12.9348 12.6726 12.6724C12.8038 12.5413 12.9761 12.4757 13.1483 12.4757C13.3206 12.4757 13.493 12.5412 13.6241 12.6724C13.7512 12.7995 13.8212 12.9685 13.8212 13.1482C13.8212 13.3279 13.7512 13.4969 13.6241 13.624Z" fill="white"/>
<path d="M12.0097 16.1675C11.3818 16.7954 11.3818 17.817 12.0097 18.4449C12.3236 18.7589 12.7359 18.9158 13.1483 18.9158C13.5607 18.9158 13.9731 18.7588 14.287 18.4449C14.5912 18.1408 14.7587 17.7364 14.7587 17.3062C14.7587 16.8761 14.5912 16.4717 14.287 16.1675C13.6592 15.5397 12.6376 15.5397 12.0097 16.1675ZM13.8212 17.3063C13.8212 17.4859 13.7513 17.6549 13.6241 17.782C13.3618 18.0444 12.9349 18.0444 12.6726 17.782C12.4103 17.5197 12.4103 17.0928 12.6726 16.8305C12.8038 16.6993 12.9761 16.6337 13.1483 16.6337C13.3206 16.6337 13.493 16.6993 13.6241 16.8305C13.7512 16.9576 13.8212 17.1265 13.8212 17.3063Z" fill="white"/>
<path d="M14.287 7.85141C13.6591 7.22352 12.6376 7.22352 12.0097 7.85141C11.3818 8.4793 11.3818 9.5009 12.0097 10.1288C12.3236 10.4428 12.7359 10.5997 13.1483 10.5997C13.5607 10.5997 13.9731 10.4427 14.287 10.1288C14.5912 9.82466 14.7587 9.42022 14.7587 8.9901C14.7587 8.55997 14.5912 8.15554 14.287 7.85141ZM13.6241 9.46588C13.3618 9.72824 12.9349 9.72824 12.6726 9.46588C12.4103 9.20357 12.4103 8.77668 12.6726 8.51436C12.8038 8.38321 12.9761 8.31758 13.1483 8.31758C13.3206 8.31758 13.493 8.38316 13.6241 8.51436C13.7512 8.64144 13.8212 8.81038 13.8212 8.99015C13.8212 9.16982 13.7512 9.3388 13.6241 9.46588Z" fill="white"/>
<path d="M7.85146 12.0095C7.22357 12.6373 7.22357 13.6589 7.85146 14.2868C8.16538 14.6008 8.57779 14.7577 8.99014 14.7577C9.4025 14.7577 9.81491 14.6008 10.1288 14.2868C10.7567 13.6589 10.7567 12.6373 10.1288 12.0095C9.50099 11.3816 8.47935 11.3816 7.85146 12.0095ZM9.46593 13.6239C9.20361 13.8863 8.77672 13.8863 8.51441 13.6239C8.25205 13.3616 8.25205 12.9347 8.51441 12.6724C8.64557 12.5413 8.81788 12.4756 8.99014 12.4756C9.16241 12.4756 9.33477 12.5412 9.46588 12.6724C9.72824 12.9347 9.72824 13.3616 9.46593 13.6239Z" fill="white"/>
<path d="M16.1675 12.0095C15.5396 12.6374 15.5396 13.659 16.1675 14.2868C16.4815 14.6008 16.8938 14.7577 17.3062 14.7577C17.7185 14.7577 18.131 14.6007 18.445 14.2868C19.0728 13.659 19.0728 12.6374 18.4449 12.0095C17.8171 11.3816 16.7954 11.3816 16.1675 12.0095ZM17.7821 13.6239C17.5196 13.8863 17.0928 13.8863 16.8305 13.6239C16.5681 13.3616 16.5681 12.9347 16.8305 12.6724C16.9616 12.5413 17.134 12.4756 17.3062 12.4756C17.4785 12.4756 17.6509 12.5412 17.782 12.6724C18.0444 12.9347 18.0444 13.3616 17.7821 13.6239Z" fill="white"/>
<path d="M17.5938 8.92188C17.8526 8.92188 18.0625 8.71201 18.0625 8.45312C18.0625 8.19424 17.8526 7.98438 17.5938 7.98438C17.3349 7.98438 17.125 8.19424 17.125 8.45312C17.125 8.71201 17.3349 8.92188 17.5938 8.92188Z" fill="white"/>
</g>
<defs>
<clipPath id="clip0_499_6613">
<rect width="24" height="24" fill="white" transform="translate(4 4)"/>
</clipPath>
</defs>
</svg>
