<svg width="33" height="32" viewBox="0 0 33 32" fill="none" xmlns="http://www.w3.org/2000/svg">
<path d="M16.6668 29.3333C14.8224 29.3333 13.0891 28.9833 11.4668 28.2833C9.84461 27.5833 8.4335 26.6333 7.2335 25.4333C6.0335 24.2333 5.0835 22.8222 4.3835 21.2C3.6835 19.5777 3.3335 17.8444 3.3335 16C3.3335 14.1555 3.6835 12.4222 4.3835 10.8C5.0835 9.17774 6.0335 7.76663 7.2335 6.56663C8.4335 5.36663 9.84461 4.41663 11.4668 3.71663C13.0891 3.01663 14.8224 2.66663 16.6668 2.66663C18.1113 2.66663 19.4779 2.87774 20.7668 3.29996C22.0557 3.72218 23.2446 4.31107 24.3335 5.06663L22.4002 7.03329C21.5557 6.49996 20.6557 6.08329 19.7002 5.78329C18.7446 5.48329 17.7335 5.33329 16.6668 5.33329C13.7113 5.33329 11.1946 6.37218 9.11683 8.44996C7.03905 10.5277 6.00016 13.0444 6.00016 16C6.00016 18.9555 7.03905 21.4722 9.11683 23.55C11.1946 25.6277 13.7113 26.6666 16.6668 26.6666C19.6224 26.6666 22.1391 25.6277 24.2168 23.55C26.2946 21.4722 27.3335 18.9555 27.3335 16C27.3335 15.6 27.3113 15.2 27.2668 14.8C27.2224 14.4 27.1557 14.0111 27.0668 13.6333L29.2335 11.4666C29.4779 12.1777 29.6668 12.9111 29.8002 13.6666C29.9335 14.4222 30.0002 15.2 30.0002 16C30.0002 17.8444 29.6502 19.5777 28.9502 21.2C28.2502 22.8222 27.3002 24.2333 26.1002 25.4333C24.9002 26.6333 23.489 27.5833 21.8668 28.2833C20.2446 28.9833 18.5113 29.3333 16.6668 29.3333ZM14.8002 22.1333L9.1335 16.4666L11.0002 14.6L14.8002 18.4L28.1335 5.03329L30.0002 6.89996L14.8002 22.1333Z" fill="#00B25B"/>
</svg>
