<svg width="32" height="32" viewBox="0 0 32 32" fill="none" xmlns="http://www.w3.org/2000/svg">
<g clip-path="url(#clip0_499_6606)">
<path d="M26.1213 5.91785H5.87866C4.84277 5.91785 4 6.76061 4 7.7965V18.3204C4 19.3563 4.84277 20.199 5.87866 20.199H11.1533V25.6123C11.1533 25.8716 11.3636 26.082 11.623 26.082H20.3923C20.6517 26.082 20.862 25.8717 20.862 25.6123V20.199H26.1214C27.1573 20.199 28 19.3563 28 18.3204V7.7965C28 6.76061 27.1572 5.91785 26.1213 5.91785ZM19.9226 13.519V22.6315C18.6301 22.8155 17.6074 23.8464 17.4354 25.1426H14.5828C14.4106 23.8454 13.3865 22.814 12.0927 22.6311V13.519H19.9226ZM12.0926 23.584C12.8677 23.7478 13.4775 24.3642 13.6317 25.1426H12.0926V23.584ZM18.3864 25.1426C18.5404 24.3651 19.149 23.7494 19.9226 23.5847V25.1426H18.3864ZM27.0607 18.3204C27.0607 18.8383 26.6393 19.2597 26.1213 19.2597H20.862V18.2241H23.726C24.7619 18.2241 25.6047 17.3813 25.6047 16.3454V9.77144C25.6047 8.73555 24.7619 7.89278 23.726 7.89278H18.1124C17.8531 7.89278 17.6427 8.10307 17.6427 8.36247C17.6427 8.62183 17.853 8.83216 18.1124 8.83216H23.726C24.244 8.83216 24.6654 9.25352 24.6654 9.77149V16.3455C24.6654 16.8634 24.244 17.2848 23.726 17.2848H20.862V13.519H23.3112C23.5705 13.519 23.7809 13.3087 23.7809 13.0493C23.7809 12.7899 23.5706 12.5796 23.3112 12.5796H8.68886C8.42945 12.5796 8.21917 12.7899 8.21917 13.0493C8.21917 13.3087 8.42945 13.519 8.68886 13.519H11.1533V17.2848H8.27397C7.75605 17.2848 7.33464 16.8634 7.33464 16.3455V9.77144C7.33464 9.25347 7.75605 8.83211 8.27397 8.83211H13.8876C14.147 8.83211 14.3573 8.62183 14.3573 8.36242C14.3573 8.10307 14.147 7.89274 13.8876 7.89274H8.27397C7.23808 7.89274 6.39531 8.7355 6.39531 9.77139V16.3454C6.39531 17.3813 7.23808 18.224 8.27397 18.224H11.1533V19.2596H5.87866C5.36073 19.2596 4.93933 18.8383 4.93933 18.3203V7.7965C4.93933 7.27853 5.36073 6.85717 5.87866 6.85717H26.1213C26.6393 6.85717 27.0606 7.27853 27.0606 7.7965V18.3204H27.0607Z" fill="white"/>
<path d="M16.0092 21.2298C17.51 21.2298 18.7309 20.0088 18.7309 18.5081C18.7309 17.0073 17.51 15.7863 16.0092 15.7863C14.5084 15.7863 13.2874 17.0073 13.2874 18.5081C13.2874 20.0088 14.5084 21.2298 16.0092 21.2298ZM16.0092 16.7256C16.992 16.7256 17.7916 17.5252 17.7916 18.5081C17.7916 19.4909 16.992 20.2904 16.0092 20.2904C15.0264 20.2904 14.2268 19.4908 14.2268 18.5081C14.2268 17.5252 15.0264 16.7256 16.0092 16.7256Z" fill="white"/>
<path d="M16 8.83118C16.2589 8.83118 16.4688 8.62131 16.4688 8.36243C16.4688 8.10354 16.2589 7.89368 16 7.89368C15.7411 7.89368 15.5312 8.10354 15.5312 8.36243C15.5312 8.62131 15.7411 8.83118 16 8.83118Z" fill="white"/>
</g>
<defs>
<clipPath id="clip0_499_6606">
<rect width="24" height="24" fill="white" transform="translate(4 4)"/>
</clipPath>
</defs>
</svg>
