<svg width="32" height="32" viewBox="0 0 32 32" fill="none" xmlns="http://www.w3.org/2000/svg">
<path d="M20.569 7.93748C20.5384 7.93748 20.5075 7.93419 20.4776 7.92815C20.4476 7.9221 20.4181 7.91313 20.3899 7.90141C20.3614 7.88969 20.3341 7.87523 20.3088 7.8582C20.283 7.84135 20.2592 7.82176 20.2376 7.80016C20.216 7.77855 20.1964 7.75475 20.179 7.72893C20.1625 7.70366 20.1481 7.67638 20.1363 7.64781C20.1246 7.61961 20.1153 7.59013 20.1096 7.5601C20.1036 7.53008 20.1003 7.49913 20.1003 7.46873C20.1003 7.43834 20.1036 7.40739 20.1096 7.37682C20.1153 7.34734 20.1246 7.31786 20.1363 7.28929C20.1481 7.26109 20.1625 7.23381 20.179 7.20854C20.1964 7.18272 20.216 7.15892 20.2376 7.13731C20.2592 7.11571 20.283 7.09612 20.3088 7.07872C20.3341 7.06187 20.3614 7.04741 20.3899 7.03569C20.4181 7.02397 20.4476 7.015 20.4776 7.00896C20.5381 6.99669 20.6 6.99669 20.6604 7.00896C20.6904 7.015 20.7199 7.02397 20.7481 7.03569C20.7767 7.04741 20.8038 7.06187 20.8292 7.07872C20.8548 7.09612 20.8788 7.11571 20.9004 7.13731C20.922 7.15892 20.9416 7.18272 20.9585 7.20854C20.9753 7.23381 20.99 7.26109 21.0017 7.28929C21.0134 7.31786 21.0222 7.34734 21.0284 7.37682C21.0345 7.40739 21.0378 7.43834 21.0378 7.46873C21.0378 7.49913 21.0345 7.53008 21.0284 7.5601C21.0222 7.59013 21.0134 7.61961 21.0017 7.64781C20.99 7.67638 20.9753 7.70366 20.9585 7.72893C20.9416 7.75475 20.922 7.77855 20.9004 7.80016C20.8788 7.82176 20.8548 7.84135 20.8292 7.8582C20.8038 7.87523 20.7767 7.88969 20.7481 7.90141C20.7199 7.91313 20.6904 7.9221 20.6604 7.92815C20.6304 7.93419 20.5994 7.93748 20.569 7.93748Z" fill="white"/>
<path d="M21.3811 4H10.694C9.74274 4 8.96875 4.77399 8.96875 5.72522V26.2748C8.96875 27.226 9.74274 28 10.694 28H21.3811C22.3325 28 23.1065 27.226 23.1065 26.2748V5.72522C23.1065 4.77399 22.3325 4 21.3811 4ZM22.169 26.2748C22.169 26.7091 21.8156 27.0625 21.3811 27.0625H10.694C10.2596 27.0625 9.90625 26.7091 9.90625 26.2748V7.93732H18.5847C18.8434 7.93732 19.0535 7.72748 19.0535 7.46857C19.0535 7.20984 18.8434 6.99982 18.5847 6.99982H9.90625V5.72522C9.90625 5.29089 10.2596 4.9375 10.694 4.9375H21.3811C21.8156 4.9375 22.169 5.29089 22.169 5.72522V22.6562H12.5221C12.2632 22.6562 12.0533 22.8661 12.0533 23.125C12.0533 23.3839 12.2632 23.5938 12.5221 23.5938H22.169V26.2748Z" fill="white"/>
<path d="M16.0374 26.7344C15.2622 26.7344 14.6312 26.1036 14.6312 25.3281C14.6312 24.5529 15.2622 23.9219 16.0374 23.9219C16.8129 23.9219 17.4437 24.5529 17.4437 25.3281C17.4437 26.1036 16.8129 26.7344 16.0374 26.7344ZM16.0374 24.8594C15.7791 24.8594 15.5687 25.0698 15.5687 25.3281C15.5687 25.5867 15.7791 25.7969 16.0374 25.7969C16.296 25.7969 16.5062 25.5867 16.5062 25.3281C16.5062 25.0698 16.296 24.8594 16.0374 24.8594Z" fill="white"/>
<path d="M15.0993 14.8781H11.3431C11.0842 14.8781 10.8743 14.6683 10.8743 14.4094V10.6533C10.8743 10.3944 11.0842 10.1846 11.3431 10.1846H15.0993C15.3582 10.1846 15.5681 10.3944 15.5681 10.6533V14.4094C15.5681 14.6683 15.3582 14.8781 15.0993 14.8781ZM11.8118 13.9406H14.6306V11.1221H11.8118V13.9406Z" fill="white"/>
<path d="M20.731 14.8781H16.9749C16.716 14.8781 16.5062 14.6683 16.5062 14.4094V10.6533C16.5062 10.3944 16.716 10.1846 16.9749 10.1846H20.731C20.9899 10.1846 21.1997 10.3944 21.1997 10.6533V14.4094C21.1997 14.6683 20.9899 14.8781 20.731 14.8781ZM17.4437 13.9406H20.2622V11.1221H17.4437V13.9406Z" fill="white"/>
<path d="M15.0993 20.5094H11.3431C11.0842 20.5094 10.8743 20.2996 10.8743 20.0406V16.2844C10.8743 16.0255 11.0842 15.8157 11.3431 15.8157H15.0993C15.3582 15.8157 15.5681 16.0255 15.5681 16.2844V20.0406C15.5681 20.2996 15.3582 20.5094 15.0993 20.5094ZM11.8118 19.5719H14.6306V16.7532H11.8118V19.5719Z" fill="white"/>
<path d="M20.731 20.5094H16.9749C16.716 20.5094 16.5062 20.2996 16.5062 20.0406V16.2844C16.5062 16.0255 16.716 15.8157 16.9749 15.8157H20.731C20.9899 15.8157 21.1997 16.0255 21.1997 16.2844V18.1625C21.1997 18.4214 20.9899 18.6313 20.731 18.6313C20.4721 18.6313 20.2622 18.4214 20.2622 18.1625V16.7532H17.4437V19.5719H20.731C20.9899 19.5719 21.1997 19.7817 21.1997 20.0406C21.1997 20.2996 20.9899 20.5094 20.731 20.5094Z" fill="white"/>
</svg>
