<svg width="38" height="39" viewBox="0 0 38 39" fill="none" xmlns="http://www.w3.org/2000/svg">
<g filter="url(#filter0_d_582_23290)">
<path d="M33.558 11.3703L29.746 13.5335C29.2533 13.8304 28.5601 13.5209 28.4527 12.9556C28.0343 11.004 26.9778 9.17546 25.4982 7.83803C25.0702 7.47012 25.135 6.73114 25.6214 6.44376L29.3149 4.11787C27.5826 2.4757 25.4603 1.24091 23.1027 0.569824V4.95475C23.1121 5.42688 22.6937 5.84532 22.2231 5.83426C22.1331 5.83426 22.0431 5.82005 21.9546 5.79321C20.0565 5.17897 17.9437 5.17897 16.0456 5.79321C15.4976 5.98269 14.8849 5.53583 14.8975 4.95475V0.569824C12.4657 1.26143 10.2834 2.55465 8.52106 4.27577L12.3425 6.42008C12.8589 6.6964 12.9442 7.45433 12.502 7.83803C11.0224 9.17546 9.96595 11.0055 9.54748 12.9556C9.44168 13.5178 8.75319 13.8304 8.2605 13.5367L4.43429 11.4003C3.86897 13.6393 3.85475 16.1958 4.39639 18.4443L8.28735 16.45C8.78003 16.1831 9.44326 16.4958 9.54748 17.0469C9.96595 18.9969 11.0224 20.827 12.502 22.1644C12.9347 22.5355 12.8636 23.284 12.3678 23.5666L8.63159 25.8341C10.3749 27.5015 12.5162 28.7537 14.8975 29.4327V25.0461C14.8865 24.4651 15.496 24.0198 16.0456 24.2093C17.9437 24.8219 20.0565 24.8219 21.9546 24.2093C22.5042 24.0198 23.1153 24.4651 23.1027 25.0461V29.4327C25.4398 28.7663 27.5479 27.5473 29.2723 25.9257L25.6103 23.5524C25.1334 23.2603 25.0734 22.5292 25.4982 22.1644C26.9778 20.827 28.0343 18.9969 28.4527 17.0469C28.5633 16.4752 29.2581 16.1689 29.7539 16.4737L33.5454 18.6811C34.147 16.3584 34.1518 13.6962 33.558 11.3703ZM19.0001 23.0882C14.5407 23.0882 10.9134 19.4596 10.9134 15.0004C11.3193 4.28841 26.6825 4.28998 27.0868 15.0004C27.0868 19.4596 23.4595 23.0882 19.0001 23.0882Z" fill="#FF7A7D"/>
<path d="M18.9995 8.67139C15.5097 8.67139 12.6704 11.5105 12.6704 15.0001C12.9894 23.3847 25.0128 23.3831 25.3286 15.0001C25.3286 11.5105 22.4894 8.67139 18.9995 8.67139Z" fill="white"/>
<path d="M21.3457 29.8174C19.825 30.0606 18.1779 30.0606 16.6572 29.8174V26.1856C18.189 26.5061 19.8124 26.5061 21.3457 26.1856V29.8174ZM32.998 20.3955C32.3996 21.9444 31.549 23.372 30.499 24.6241L27.4766 22.6661C28.0149 22.0693 28.4913 21.4154 28.8955 20.7129C29.2918 20.0293 29.6127 19.3111 29.8574 18.5674L32.998 20.3955ZM8.12305 18.5088C8.37094 19.273 8.69776 20.0119 9.10352 20.7129C9.50303 21.4061 9.97197 22.0511 10.501 22.6416L7.41113 24.5166C6.34845 23.2251 5.49697 21.7538 4.91113 20.1543L8.12305 18.5088ZM10.4756 7.38773C9.95606 7.97039 9.49672 8.60561 9.10352 9.28617C8.70565 9.97767 8.38206 10.7023 8.13574 11.4522L4.9707 9.68559C5.5344 8.19987 6.32869 6.82772 7.30762 5.61039L10.4756 7.38773ZM30.54 5.42387C31.5822 6.67915 32.4258 8.10635 33.0195 9.65531L29.8623 11.4463C29.6175 10.6979 29.2944 9.97402 28.8965 9.28715C28.4939 8.58943 28.0215 7.9393 27.4863 7.34574L30.54 5.42387ZM16.6572 0.181678C18.1779 -0.0599071 19.825 -0.0599097 21.3457 0.181678V3.81449C19.8124 3.49396 18.1889 3.49397 16.6572 3.81449V0.181678Z" fill="white"/>
</g>
<defs>
<filter id="filter0_d_582_23290" x="0" y="0" width="38" height="39" filterUnits="userSpaceOnUse" color-interpolation-filters="sRGB">
<feFlood flood-opacity="0" result="BackgroundImageFix"/>
<feColorMatrix in="SourceAlpha" type="matrix" values="0 0 0 0 0 0 0 0 0 0 0 0 0 0 0 0 0 0 127 0" result="hardAlpha"/>
<feOffset dy="5"/>
<feGaussianBlur stdDeviation="2"/>
<feComposite in2="hardAlpha" operator="out"/>
<feColorMatrix type="matrix" values="0 0 0 0 0 0 0 0 0 0 0 0 0 0 0 0 0 0 0.5 0"/>
<feBlend mode="normal" in2="BackgroundImageFix" result="effect1_dropShadow_582_23290"/>
<feBlend mode="normal" in="SourceGraphic" in2="effect1_dropShadow_582_23290" result="shape"/>
</filter>
</defs>
</svg>
