<svg width="40" height="41" viewBox="0 0 40 41" fill="none" xmlns="http://www.w3.org/2000/svg">
<path d="M29.2049 26.1078C28.8752 26.1078 28.553 26.0027 28.2789 25.8059C28.0048 25.609 27.7912 25.3292 27.6651 25.0018C27.5389 24.6744 27.5059 24.3142 27.5702 23.9666C27.6345 23.6191 27.7933 23.2998 28.0264 23.0493C28.2594 22.7987 28.5564 22.628 28.8797 22.5589C29.203 22.4898 29.5381 22.5253 29.8427 22.6609C30.1472 22.7965 30.4075 23.0261 30.5906 23.3208C30.7738 23.6154 30.8715 23.9618 30.8715 24.3162C30.8715 24.7913 30.6959 25.2471 30.3834 25.5831C30.0708 25.9191 29.6469 26.1078 29.2049 26.1078ZM10.7951 26.1078C10.4655 26.1078 10.1433 26.0027 9.86919 25.8059C9.59511 25.609 9.38149 25.3292 9.25534 25.0018C9.12919 24.6744 9.09619 24.3142 9.1605 23.9666C9.22481 23.6191 9.38354 23.2998 9.61663 23.0493C9.84972 22.7987 10.1467 22.628 10.47 22.5589C10.7933 22.4898 11.1284 22.5253 11.4329 22.6609C11.7375 22.7965 11.9978 23.0261 12.1809 23.3208C12.3641 23.6154 12.4618 23.9618 12.4618 24.3162C12.4618 24.7913 12.2862 25.2471 11.9737 25.5831C11.6611 25.9191 11.2372 26.1078 10.7951 26.1078ZM29.8021 15.322L33.1313 9.12581C33.1842 9.04095 33.2204 8.9453 33.2376 8.84479C33.2548 8.74429 33.2526 8.64106 33.2312 8.5415C33.2097 8.44194 33.1695 8.34817 33.113 8.266C33.0565 8.18383 32.9848 8.11501 32.9026 8.06381C32.8203 8.0126 32.7291 7.98009 32.6347 7.9683C32.5403 7.95651 32.4446 7.96569 32.3536 7.99526C32.2626 8.02484 32.1783 8.07418 32.1057 8.14024C32.0332 8.20629 31.974 8.28765 31.9319 8.37928L28.5611 14.6553C25.8686 13.3571 22.951 12.686 20 12.686C17.049 12.686 14.1314 13.3571 11.4389 14.6553L8.06806 8.37928C8.02596 8.28765 7.96682 8.20629 7.89428 8.14024C7.82175 8.07418 7.73737 8.02484 7.64638 7.99526C7.55539 7.96569 7.45971 7.95651 7.36528 7.9683C7.27086 7.98009 7.17969 8.0126 7.09742 8.06381C7.01516 8.11501 6.94355 8.18383 6.88703 8.266C6.83051 8.34817 6.79029 8.44194 6.76885 8.5415C6.74741 8.64106 6.74522 8.74429 6.7624 8.84479C6.77959 8.9453 6.81578 9.04095 6.86875 9.12581L10.1979 15.322C4.48125 18.6642 0.572222 24.885 0 32.2346H40C39.4278 24.885 35.5181 18.6642 29.8021 15.322Z" fill="white"/>
</svg>
