<svg width="180" height="69" viewBox="0 0 180 69" fill="none" xmlns="http://www.w3.org/2000/svg">
<path d="M12.1128 0.5H167.887C174.238 0.5 179.387 5.64873 179.387 12V56.4629C179.387 62.8142 174.238 67.9629 167.887 67.9629H12.1128C5.76152 67.9629 0.612793 62.8142 0.612793 56.4629V12C0.612793 5.64873 5.76152 0.5 12.1128 0.5Z" fill="#006269"/>
<path d="M12.1128 0.5H167.887C174.238 0.5 179.387 5.64873 179.387 12V56.4629C179.387 62.8142 174.238 67.9629 167.887 67.9629H12.1128C5.76152 67.9629 0.612793 62.8142 0.612793 56.4629V12C0.612793 5.64873 5.76152 0.5 12.1128 0.5Z" stroke="white"/>
<path d="M57.1642 17.4425C56.3008 16.4796 55.1391 16 53.6753 16H44.5408C43.0912 16 41.7482 16.4796 40.5118 17.4425C39.2612 18.4195 38.5009 19.5955 38.2273 20.9741L36.8062 28.2966H44.0434L45.1199 22.7399H50.4847L49.3656 28.492C49.1951 29.398 48.8541 30.0197 48.353 30.3679C47.909 30.6841 47.2055 30.8404 46.2427 30.8404C43.2831 30.8404 40.7428 31.6505 38.6181 33.2741C36.4509 34.9263 35.0937 37.1504 34.5465 39.9536L32.1128 52.4491H51.9522L54.2153 40.8702H46.9959L46.0508 45.7057H40.6611L41.7802 39.9536C41.9543 39.0477 42.2883 38.4258 42.7928 38.0777C43.2369 37.7615 43.9475 37.6051 44.9245 37.6051C47.8841 37.6051 50.4245 36.7951 52.5491 35.1715C54.7021 33.5193 56.0522 31.2952 56.5993 28.492L58.0631 20.9741C58.3403 19.5955 58.0419 18.4195 57.1642 17.4425Z" fill="#F04C4D"/>
<path d="M83.2147 17.4425C82.3514 16.4796 81.1896 16 79.7258 16H70.5913C69.1417 16 67.7988 16.4796 66.5622 17.4425C65.3117 18.4195 64.5514 19.5955 64.2778 20.9741L62.8567 28.2966H70.0938L71.1705 22.7398H76.5353L75.4162 28.492C75.242 29.398 74.9045 30.0197 74.4036 30.3679C73.9595 30.6841 73.256 30.8404 72.2931 30.8404C69.3336 30.8404 66.7933 31.6505 64.6686 33.2741C62.5014 34.9263 61.1441 37.1503 60.597 39.9536L58.1632 52.4492H78.0026L79.1679 46.4624L80.2622 40.8703H73.0428L72.0978 45.7058H66.715L67.8342 39.9536C68.0083 39.0476 68.3424 38.4259 68.8469 38.0776C69.291 37.7615 70.0015 37.6052 70.9786 37.6052C73.9381 37.6052 76.4784 36.7951 78.6031 35.1714C80.7562 33.5192 82.1063 31.2952 82.6533 28.492L84.1171 20.9741C84.3942 19.5955 84.0923 18.4195 83.2147 17.4425Z" fill="#0A8F9B"/>
<path d="M109.904 17.4602C109.03 16.4974 107.858 16.0142 106.394 16.0142L91.3365 16L90.0184 22.7505H92.0364H94.7827H98.2753L103.224 22.7541L102.098 28.5062C101.967 29.1528 101.594 29.7106 100.976 30.1867C100.478 30.5527 99.9417 30.7658 99.3767 30.8298H95.1772L96.346 24.8787H89.5956L85.9609 43.574H92.7114L93.8625 37.6016H94.7827V37.6122L98.6199 37.6159C99.3092 37.6159 99.8705 37.8397 100.301 38.2838C100.73 38.7456 100.88 39.3035 100.752 39.9643L100.08 43.3466C99.7781 44.9277 98.485 45.7128 96.2003 45.7128H94.7827H85.531L84.2166 52.442L94.8787 52.4527C97.8667 52.4562 100.517 51.6603 102.83 50.0688C105.289 48.3775 106.785 46.1392 107.317 43.3537L107.989 39.9714C108.493 37.3565 107.808 35.3312 105.928 33.8959C107.769 32.5068 108.905 30.7125 109.339 28.5133L110.81 20.9954C111.076 19.6168 110.778 18.4373 109.904 17.4602Z" fill="white"/>
<path d="M125.238 16H118.12L110.904 52.4633H118.119L125.238 16Z" fill="white"/>
<path d="M132.304 22.7469L125.238 22.7398L126.559 16L147.887 16.0213L146.566 22.7611L139.52 22.7541L133.715 52.4527L126.499 52.4456L132.304 22.7469Z" fill="white"/>
</svg>
