<svg width="39" height="39" viewBox="0 0 39 39" fill="none" xmlns="http://www.w3.org/2000/svg">
<g filter="url(#filter0_d_757_693)">
<path d="M34.058 11.37L30.246 13.5333C29.7533 13.8302 29.0601 13.5207 28.9527 12.9554C28.5343 11.0037 27.4778 9.17522 25.9982 7.83779C25.5702 7.46988 25.635 6.7309 26.1214 6.44352L29.8149 4.11763C28.0826 2.47545 25.9603 1.24066 23.6027 0.56958V4.95451C23.6121 5.42663 23.1937 5.84507 22.7231 5.83402C22.6331 5.83402 22.5431 5.81981 22.4546 5.79296C20.5565 5.17873 18.4437 5.17873 16.5456 5.79296C15.9976 5.98245 15.3849 5.53558 15.3975 4.95451V0.56958C12.9657 1.26119 10.7834 2.5544 9.02106 4.27553L12.8425 6.41983C13.3589 6.69616 13.4442 7.45409 13.002 7.83779C11.5224 9.17522 10.466 11.0053 10.0475 12.9554C9.94168 13.5175 9.25319 13.8302 8.7605 13.5365L4.93429 11.4C4.36897 13.6391 4.35475 16.1955 4.89639 18.444L8.78735 16.4497C9.28003 16.1829 9.94326 16.4955 10.0475 17.0466C10.466 18.9967 11.5224 20.8268 13.002 22.1642C13.4347 22.5353 13.3636 23.2837 12.8678 23.5664L9.13159 25.8338C10.8749 27.5013 13.0162 28.7534 15.3975 29.4324V25.0459C15.3865 24.4648 15.996 24.0195 16.5456 24.209C18.4437 24.8217 20.5565 24.8217 22.4546 24.209C23.0042 24.0195 23.6153 24.4648 23.6027 25.0459V29.4324C25.9398 28.7661 28.0479 27.5471 29.7723 25.9254L26.1103 23.5522C25.6334 23.26 25.5734 22.5289 25.9982 22.1642C27.4778 20.8268 28.5343 18.9967 28.9527 17.0466C29.0633 16.475 29.7581 16.1687 30.2539 16.4734L34.0454 18.6809C34.647 16.3582 34.6518 13.6959 34.058 11.37ZM19.5001 23.0879C15.0407 23.0879 11.4134 19.4593 11.4134 15.0002C11.8193 4.28816 27.1825 4.28974 27.5868 15.0002C27.5868 19.4593 23.9595 23.0879 19.5001 23.0879Z" fill="#FF7A7D"/>
<path d="M19.4995 8.67157C16.0097 8.67157 13.1704 11.5106 13.1704 15.0003C13.4894 23.3848 25.5128 23.3833 25.8286 15.0003C25.8286 11.5106 22.9894 8.67157 19.4995 8.67157Z" fill="white"/>
<path d="M21.8457 29.8178C20.325 30.0609 18.6779 30.0609 17.1572 29.8178V26.1859C18.6889 26.5065 20.3124 26.5065 21.8457 26.1859V29.8178ZM33.498 20.3959C32.8996 21.9448 32.049 23.3724 30.999 24.6244L27.9766 22.6664C28.5149 22.0697 28.9913 21.4158 29.3955 20.7133C29.7919 20.0296 30.1127 19.3105 30.3574 18.5668L33.498 20.3959ZM8.62305 18.5092C8.87096 19.2733 9.19774 20.0123 9.60352 20.7133C10.003 21.4064 10.472 22.0505 11.001 22.641L7.91113 24.517C6.84838 23.2254 5.99699 21.7533 5.41113 20.1537L8.62305 18.5092ZM10.9756 7.38809C10.4562 7.97063 9.99665 8.60516 9.60352 9.28555C9.20558 9.97716 8.88209 10.7025 8.63574 11.4525L5.4707 9.68497C6.03444 8.19924 6.82864 6.8271 7.80762 5.60977L10.9756 7.38809ZM31.04 5.42325C32.0823 6.67857 32.9258 8.10666 33.5195 9.65567L30.3623 11.4457C30.1176 10.6974 29.7943 9.97423 29.3965 9.28751C28.9938 8.58961 28.5216 7.93882 27.9863 7.34512L31.04 5.42325ZM17.1572 0.181062C18.6779 -0.060511 20.325 -0.0605222 21.8457 0.181062V3.81485C20.3124 3.49431 18.689 3.49431 17.1572 3.81485V0.181062Z" fill="white"/>
</g>
<defs>
<filter id="filter0_d_757_693" x="0.5" y="-0.00012207" width="38" height="39.0002" filterUnits="userSpaceOnUse" color-interpolation-filters="sRGB">
<feFlood flood-opacity="0" result="BackgroundImageFix"/>
<feColorMatrix in="SourceAlpha" type="matrix" values="0 0 0 0 0 0 0 0 0 0 0 0 0 0 0 0 0 0 127 0" result="hardAlpha"/>
<feOffset dy="5"/>
<feGaussianBlur stdDeviation="2"/>
<feComposite in2="hardAlpha" operator="out"/>
<feColorMatrix type="matrix" values="0 0 0 0 0 0 0 0 0 0 0 0 0 0 0 0 0 0 0.5 0"/>
<feBlend mode="normal" in2="BackgroundImageFix" result="effect1_dropShadow_757_693"/>
<feBlend mode="normal" in="SourceGraphic" in2="effect1_dropShadow_757_693" result="shape"/>
</filter>
</defs>
</svg>
