<svg width="16" height="16" viewBox="0 0 16 16" fill="none" xmlns="http://www.w3.org/2000/svg">
<path d="M11.6819 10.2578C11.5501 10.2578 11.4212 10.2158 11.3116 10.137C11.2019 10.0583 11.1165 9.94634 11.066 9.81539C11.0156 9.68444 11.0024 9.54034 11.0281 9.40132C11.0538 9.2623 11.1173 9.1346 11.2105 9.03437C11.3038 8.93415 11.4226 8.86589 11.5519 8.83824C11.6812 8.81059 11.8152 8.82478 11.9371 8.87902C12.0589 8.93326 12.163 9.02512 12.2363 9.14297C12.3095 9.26083 12.3486 9.39939 12.3486 9.54113C12.3486 9.73121 12.2784 9.91349 12.1533 10.0479C12.0283 10.1823 11.8588 10.2578 11.6819 10.2578ZM4.31806 10.2578C4.1862 10.2578 4.05731 10.2158 3.94768 10.137C3.83804 10.0583 3.75259 9.94634 3.70214 9.81539C3.65168 9.68444 3.63848 9.54034 3.6642 9.40132C3.68992 9.2623 3.75342 9.1346 3.84665 9.03437C3.93989 8.93415 4.05867 8.86589 4.188 8.83824C4.31732 8.81059 4.45136 8.82478 4.57318 8.87902C4.695 8.93326 4.79911 9.02512 4.87237 9.14297C4.94562 9.26083 4.98472 9.39939 4.98472 9.54113C4.98472 9.73121 4.91448 9.91349 4.78946 10.0479C4.66444 10.1823 4.49487 10.2578 4.31806 10.2578ZM11.9208 5.94347L13.2525 3.46499C13.2737 3.43105 13.2882 3.39279 13.295 3.35259C13.3019 3.31239 13.301 3.2711 13.2925 3.23127C13.2839 3.19145 13.2678 3.15394 13.2452 3.12107C13.2226 3.08821 13.1939 3.06068 13.161 3.0402C13.1281 3.01971 13.0917 3.00671 13.0539 3.00199C13.0161 2.99728 12.9778 3.00095 12.9414 3.01278C12.9051 3.02461 12.8713 3.04435 12.8423 3.07077C12.8133 3.09719 12.7896 3.12973 12.7728 3.16638L11.4244 5.67681C10.3474 5.15753 9.18039 4.88908 8 4.88908C6.81961 4.88908 5.65258 5.15753 4.57556 5.67681L3.22722 3.16638C3.21038 3.12973 3.18673 3.09719 3.15771 3.07077C3.1287 3.04435 3.09495 3.02461 3.05855 3.01278C3.02215 3.00095 2.98388 2.99728 2.94611 3.00199C2.90834 3.00671 2.87188 3.01971 2.83897 3.0402C2.80606 3.06068 2.77742 3.08821 2.75481 3.12107C2.7322 3.15394 2.71611 3.19145 2.70754 3.23127C2.69896 3.2711 2.69809 3.31239 2.70496 3.35259C2.71183 3.39279 2.72631 3.43105 2.7475 3.46499L4.07917 5.94347C1.7925 7.28035 0.228889 9.76867 0 12.7085H16C15.7711 9.76867 14.2072 7.28035 11.9208 5.94347Z" fill="white"/>
</svg>
