<svg width="16" height="16" viewBox="0 0 16 16" fill="none" xmlns="http://www.w3.org/2000/svg">
<path d="M12.2387 8.45511C12.232 7.14416 12.7879 6.15469 13.9131 5.42599C13.2835 4.4651 12.3325 3.93643 11.0767 3.83284C9.88782 3.73282 8.58848 4.57226 8.11295 4.57226C7.61062 4.57226 6.45863 3.86856 5.55445 3.86856C3.6858 3.90071 1.69995 5.45814 1.69995 8.62657C1.69995 9.56245 1.86069 10.5293 2.18218 11.5271C2.61083 12.838 4.15799 16.0529 5.77212 15.9993C6.61602 15.9779 7.21211 15.3599 8.31053 15.3599C9.37545 15.3599 9.92801 15.9993 10.869 15.9993C12.4966 15.9743 13.8964 13.0524 14.3049 11.7379C12.1215 10.6412 12.2387 8.52298 12.2387 8.45511ZM10.3433 2.58976C11.2575 1.4324 11.1738 0.37864 11.147 0C10.3399 0.0500091 9.40559 0.585821 8.87313 1.24666C8.28709 1.95393 7.94216 2.82909 8.01583 3.81498C8.88987 3.88642 9.68689 3.40776 10.3433 2.58976Z" fill="white"/>
</svg>
