<svg width="116" height="36" viewBox="0 0 116 36" fill="none" xmlns="http://www.w3.org/2000/svg">
<g clip-path="url(#clip0_499_21)">
<path d="M25.0515 1.44247C24.188 0.479639 23.0263 0 21.5626 0H12.428C10.9784 0 9.63546 0.479639 8.39904 1.44247C7.14842 2.41952 6.3881 3.59553 6.11453 4.97405L4.69338 12.2966H11.9306L13.0072 6.73985H18.3719L17.2528 12.492C17.0823 13.398 16.7413 14.0197 16.2402 14.3679C15.7962 14.6841 15.0927 14.8404 14.1299 14.8404C11.1703 14.8404 8.62999 15.6505 6.50535 17.2741C4.33809 18.9263 2.98088 21.1504 2.43373 23.9536L0 36.4491H19.8394L22.1025 24.8702H14.8831L13.938 29.7057H8.54826L9.66742 23.9536C9.84152 23.0477 10.1755 22.4258 10.68 22.0777C11.1241 21.7615 11.8347 21.6051 12.8117 21.6051C15.7713 21.6051 18.3117 20.7951 20.4363 19.1715C22.5893 17.5193 23.9394 15.2952 24.4865 12.492L25.9503 4.97405C26.2275 3.59553 25.9291 2.41952 25.0515 1.44247Z" fill="#F04C4D"/>
<path d="M51.1018 1.44247C50.2386 0.47964 49.0767 0 47.6129 0H38.4784C37.0289 0 35.6859 0.47964 34.4494 1.44247C33.1988 2.41951 32.4385 3.59553 32.1649 4.97405L30.7438 12.2966H37.981L39.0576 6.73984H44.4225L43.3033 12.492C43.1292 13.398 42.7917 14.0197 42.2908 14.3679C41.8467 14.6841 41.1432 14.8404 40.1803 14.8404C37.2207 14.8404 34.6805 15.6505 32.5557 17.2741C30.3886 18.9263 29.0313 21.1503 28.4842 23.9536L26.0504 36.4492H45.8898L47.0551 30.4624L48.1494 24.8703H40.93L39.9849 29.7058H34.6022L35.7214 23.9536C35.8955 23.0476 36.2295 22.4259 36.7341 22.0776C37.1782 21.7615 37.8887 21.6052 38.8658 21.6052C41.8253 21.6052 44.3655 20.7951 46.4903 19.1714C48.6434 17.5192 49.9934 15.2952 50.5405 12.492L52.0043 4.97405C52.2814 3.59553 51.9795 2.41951 51.1018 1.44247Z" fill="#0A8F9B"/>
<path d="M77.7912 1.46024C76.9172 0.4974 75.7448 0.0142037 74.281 0.0142037L59.2238 0L57.9057 6.7505H59.9236H62.67H66.1625L71.1117 6.75406L69.9854 12.5062C69.854 13.1528 69.4809 13.7106 68.8628 14.1867C68.3654 14.5527 67.8289 14.7658 67.2639 14.8298H63.0644L64.2333 8.87868H57.4829L53.8482 27.574H60.5987L61.7498 21.6016H62.67V21.6122L66.5071 21.6159C67.1964 21.6159 67.7577 21.8397 68.1878 22.2838C68.6177 22.7456 68.7668 23.3035 68.6389 23.9643L67.9675 27.3466C67.6654 28.9277 66.3722 29.7128 64.0876 29.7128H62.67H53.4183L52.1038 36.442L62.766 36.4527C65.754 36.4562 68.4045 35.6603 70.7174 34.0688C73.1759 32.3775 74.6718 30.1392 75.2046 27.3537L75.8762 23.9714C76.3807 21.3565 75.6949 19.3312 73.8155 17.8959C75.6559 16.5068 76.7927 14.7125 77.2263 12.5133L78.6972 4.99536C78.9637 3.61684 78.6652 2.43728 77.7912 1.46024Z" fill="white"/>
<path d="M93.1247 -4.57764e-05H86.0075L78.7912 36.4633H86.006L93.1247 -4.57764e-05Z" fill="white"/>
<path d="M100.192 6.74694L93.1249 6.73983L94.4465 0L115.775 0.0213165L114.453 6.76115L107.407 6.75406L101.602 36.4527L94.3861 36.4456L100.192 6.74694Z" fill="white"/>
</g>
<defs>
<clipPath id="clip0_499_21">
<rect width="116" height="36" fill="white"/>
</clipPath>
</defs>
</svg>
