<svg width="16" height="16" viewBox="0 0 16 16" fill="none" xmlns="http://www.w3.org/2000/svg">
<path d="M15.6657 4.12938C15.4817 3.43651 14.9395 2.89083 14.2511 2.70564C13.0034 2.36914 8.00001 2.36914 8.00001 2.36914C8.00001 2.36914 2.99669 2.36914 1.74891 2.70564C1.06052 2.89086 0.51835 3.43651 0.334336 4.12938C0 5.38525 0 8.00551 0 8.00551C0 8.00551 0 10.6258 0.334336 11.8816C0.51835 12.5745 1.06052 13.0975 1.74891 13.2826C2.99669 13.6191 8.00001 13.6191 8.00001 13.6191C8.00001 13.6191 13.0033 13.6191 14.2511 13.2826C14.9395 13.0975 15.4817 12.5745 15.6657 11.8816C16 10.6258 16 8.00551 16 8.00551C16 8.00551 16 5.38525 15.6657 4.12938ZM6.36363 10.3845V5.62651L10.5454 8.00557L6.36363 10.3845Z" fill="#BACED0"/>
</svg>
