<svg width="24" height="24" viewBox="0 0 24 24" fill="none" xmlns="http://www.w3.org/2000/svg">
<path d="M20.9433 4.40891C20.3437 3.29795 17.1962 2.82183 16.5966 3.05989L15.5474 3.61537C14.5135 4.29728 13.3182 4.65497 12.1001 4.64697H12.0252H11.8753C10.6013 4.64697 9.4022 4.2502 8.42795 3.53601L7.45371 3.13924C6.70429 2.82183 3.70661 3.29795 2.95719 4.40891C0.4841 8.69403 -0.939798 18.6133 0.708926 20.4384C0.879062 20.6336 1.089 20.785 1.32276 20.8813C1.55652 20.9776 1.80794 21.0161 2.05788 20.9939C2.95719 20.9146 3.93143 20.0417 4.75579 18.6133L4.98062 18.2959C6.47946 15.5978 6.62935 15.3598 12.0252 15.3598C17.421 15.3598 17.4959 15.5978 18.9948 18.2959L19.2196 18.6926C20.1189 20.0417 21.0182 20.9146 21.9175 20.9939H22.0674C22.592 20.9939 23.0416 20.7559 23.3414 20.4384C24.9152 18.6133 23.4913 8.69403 20.9433 4.40891ZM17.0463 5.04374H18.2454C18.2454 5.04374 18.3952 5.04374 18.3952 5.20245V6.39276L18.3203 6.55147L17.7208 6.94824C17.698 6.96217 17.6721 6.9695 17.6458 6.9695C17.6195 6.9695 17.5937 6.96217 17.5709 6.94824L16.9713 6.55147L16.8964 6.39276V5.20245L17.0463 5.04374ZM13.599 7.34501C13.669 7.27231 13.7632 7.23159 13.8612 7.23159C13.9593 7.23159 14.0535 7.27231 14.1235 7.34501L14.2734 7.58307C14.2734 7.82113 14.1235 7.97984 13.8987 7.97984C13.8291 7.97984 13.7609 7.95932 13.7017 7.92059C13.6425 7.88185 13.5947 7.82642 13.5636 7.76051C13.5324 7.69461 13.5193 7.62083 13.5255 7.54744C13.5318 7.47405 13.5572 7.40396 13.599 7.34501ZM9.85185 7.34501C9.9219 7.27231 10.0161 7.23159 10.1141 7.23159C10.2122 7.23159 10.3064 7.27231 10.3764 7.34501L10.5263 7.58307C10.5476 7.67362 10.5381 7.76922 10.4994 7.85307C10.4608 7.93692 10.3954 8.00366 10.3149 8.04155C10.2344 8.07945 10.1438 8.08608 10.0591 8.06028C9.97444 8.03448 9.90105 7.9779 9.85185 7.90049L9.77691 7.58307L9.85185 7.34501ZM5.80498 9.17015C5.50854 9.17015 5.21875 9.07707 4.97227 8.90268C4.72579 8.72829 4.53368 8.48042 4.42023 8.19042C4.30679 7.90042 4.27711 7.58131 4.33494 7.27345C4.39278 6.96558 4.53553 6.68279 4.74514 6.46083C4.95476 6.23888 5.22183 6.08772 5.51257 6.02648C5.80332 5.96525 6.10469 5.99668 6.37856 6.1168C6.65244 6.23692 6.88653 6.44034 7.05122 6.70134C7.21592 6.96233 7.30382 7.26918 7.30382 7.58307C7.30382 8.00399 7.14591 8.40767 6.86482 8.70531C6.58374 9.00294 6.2025 9.17015 5.80498 9.17015ZM11.2757 12.0269C11.2757 12.1063 11.2008 12.1856 11.0509 12.1856H9.92679V13.3759C9.92679 13.5346 9.92679 13.614 9.77691 13.614H8.65278C8.62297 13.6456 8.58253 13.6633 8.54037 13.6633C8.4982 13.6633 8.45777 13.6456 8.42795 13.614C8.39814 13.5824 8.38139 13.5396 8.38139 13.495C8.38139 13.4503 8.39814 13.4075 8.42795 13.3759V12.1856H7.30382C7.26844 12.1742 7.23625 12.1538 7.21011 12.1261C7.18396 12.0984 7.16467 12.0644 7.15394 12.0269V10.7572C7.15394 10.7572 7.15394 10.5985 7.30382 10.5985H8.42795V9.40822C8.42795 9.24951 8.5029 9.17015 8.65278 9.17015H9.70197C9.77691 9.17015 9.85185 9.24951 9.85185 9.40822V10.5192H10.976C11.1259 10.5192 11.2008 10.5985 11.2008 10.6779V12.1063L11.2757 12.0269ZM12.0252 8.61468C11.83 8.63062 11.6348 8.58393 11.465 8.4807C11.2953 8.37747 11.1588 8.22248 11.0735 8.03594C10.9881 7.8494 10.9578 7.63995 10.9865 7.43491C11.0152 7.22986 11.1016 7.03873 11.2344 6.88641C11.3671 6.7341 11.5402 6.62767 11.7309 6.58101C11.9216 6.53434 12.1212 6.5496 12.3036 6.62479C12.4861 6.69999 12.6429 6.83163 12.7536 7.00256C12.8644 7.1735 12.9239 7.37579 12.9245 7.58307C12.9245 8.13855 12.5498 8.61468 12.0252 8.61468ZM14.798 13.0585C14.5016 13.0585 14.2118 12.9654 13.9653 12.791C13.7188 12.6166 13.5267 12.3688 13.4133 12.0788C13.2998 11.7888 13.2702 11.4697 13.328 11.1618C13.3858 10.8539 13.5286 10.5711 13.7382 10.3492C13.9478 10.1272 14.2149 9.97607 14.5056 9.91484C14.7964 9.8536 15.0977 9.88503 15.3716 10.0051C15.6455 10.1253 15.8796 10.3287 16.0443 10.5897C16.209 10.8507 16.2969 11.1575 16.2969 11.4714C16.2969 11.8923 16.139 12.296 15.8579 12.5937C15.5768 12.8913 15.1955 13.0585 14.798 13.0585ZM16.5217 8.37661H15.3976C15.3489 8.37953 15.3007 8.36564 15.2601 8.33701C15.2196 8.30839 15.1889 8.26659 15.1727 8.2179V7.02759C15.1727 6.86889 15.2477 6.78953 15.3976 6.78953H16.5217L16.6716 6.86888L17.0463 7.50372C17.0622 7.51861 17.075 7.53693 17.0838 7.55745C17.0925 7.57797 17.097 7.60023 17.097 7.62275C17.097 7.64527 17.0925 7.66752 17.0838 7.68805C17.075 7.70857 17.0622 7.72689 17.0463 7.74178L16.6716 8.29726L16.5217 8.37661ZM18.2454 10.2018H17.0463C17.0003 10.1846 16.9608 10.1522 16.9338 10.1092C16.9068 10.0663 16.8936 10.0152 16.8964 9.96369V8.77338L16.9713 8.61468L17.5709 8.2179H17.7208L18.3203 8.61468V9.96369L18.2454 10.2018ZM20.044 8.2179C20.044 8.29726 20.044 8.37661 19.8941 8.37661H18.695H18.5451L18.1704 7.74178V7.58307V7.50372L18.5451 6.86888H19.8191C19.8941 6.86888 19.969 6.86889 19.969 7.02759V8.13855L20.044 8.2179Z" fill="white"/>
</svg>
