<svg width="24" height="24" viewBox="0 0 24 24" fill="none" xmlns="http://www.w3.org/2000/svg">
<g clip-path="url(#clip0_763_1251)">
<path d="M13.2414 6.62068C13.2414 6.19613 13.1975 5.78192 13.1205 5.3793H11.8494C11.9445 5.77861 12 6.19282 12 6.62068C12 7.04854 11.9445 7.46275 11.8498 7.86206H13.121C13.1975 7.45944 13.2414 7.04523 13.2414 6.62068Z" fill="white"/>
<path d="M12.5032 2.06897C13.0713 2.80138 13.5062 3.63931 13.7706 4.55173H15.3886C15.079 3.61366 14.5643 2.76994 13.8989 2.06897H12.5032Z" fill="white"/>
<path d="M10.7012 10.116L11.5784 10.9932C12.1652 10.3291 12.6216 9.5491 12.9054 8.68924H11.5846C11.3661 9.21269 11.0653 9.69186 10.7012 10.116Z" fill="white"/>
<path d="M14.9858 2.06897C15.554 2.80138 15.9889 3.63931 16.2533 4.55173H17.8712C17.5617 3.61366 17.0469 2.76994 16.3816 2.06897H14.9858Z" fill="white"/>
<path d="M17.4688 2.06897C18.0369 2.80138 18.4718 3.63931 18.7362 4.55173H20.3541C20.0446 3.61366 19.5299 2.76994 18.8645 2.06897H17.4688Z" fill="white"/>
<path d="M10.116 10.7011C9.6919 11.0652 9.21273 11.3661 8.6897 11.585V12.9058C9.54956 12.6219 10.3291 12.1655 10.9937 11.5788L10.116 10.7011Z" fill="white"/>
<path d="M14.4365 10.5397C14.8565 9.96994 15.1784 9.34801 15.3948 8.68967H13.7707C13.1959 10.6713 11.8209 12.3124 10.0176 13.2414H11.1907C11.986 12.0559 13.1123 11.1116 14.4365 10.5397Z" fill="white"/>
<path d="M10.7012 3.12537C11.0653 3.5495 11.3661 4.02868 11.585 4.55171H12.9059C12.622 3.69185 12.1656 2.91226 11.5788 2.24771L10.7012 3.12537Z" fill="white"/>
<path d="M13.884 13.2989C14.3081 12.9348 14.7873 12.6339 15.3103 12.415V11.0942C14.4505 11.3781 13.6709 11.8345 13.0063 12.4212L13.884 13.2989Z" fill="white"/>
<path d="M18.9224 5.3793C18.9906 5.78399 19.0345 6.19696 19.0345 6.62068C19.0345 7.03944 18.9952 7.45365 18.9265 7.86206H20.5688C20.6458 7.45613 20.6897 7.04192 20.6897 6.62068C20.6897 6.19613 20.6458 5.78192 20.5688 5.3793H18.9224Z" fill="white"/>
<path d="M17.8726 8.68967H16.2559C16.1115 9.19036 15.9187 9.67532 15.6704 10.1367C16.1997 10.0117 16.7488 9.93932 17.3144 9.93436C17.5441 9.53836 17.7307 9.12167 17.8726 8.68967Z" fill="white"/>
<path d="M0.335693 8.68967C0.619555 9.54953 1.07597 10.3291 1.66273 10.9937L2.53997 10.1164C2.17625 9.69187 1.87542 9.2127 1.65652 8.68967H0.335693Z" fill="white"/>
<path d="M4.55163 11.585C4.0286 11.3661 3.54943 11.0652 3.12529 10.7011L2.24805 11.5784C2.91218 12.1651 3.69218 12.6215 4.55205 12.9054V11.585H4.55163Z" fill="white"/>
<path d="M15.6041 7.86206C15.6806 7.45654 15.7241 7.04234 15.7241 6.62068C15.7241 6.19613 15.6802 5.78192 15.6033 5.3793H13.9568C14.0251 5.78399 14.0689 6.19696 14.0689 6.62068C14.0689 7.04441 14.0251 7.45737 13.9568 7.86206H15.6041Z" fill="white"/>
<path d="M11.1723 6.62069C11.1723 4.11104 9.13023 2.06897 6.62057 2.06897C4.11092 2.06897 2.06885 4.11104 2.06885 6.62069C2.06885 9.13035 4.11092 11.1724 6.62057 11.1724C9.13023 11.1724 11.1723 9.13035 11.1723 6.62069ZM9.51712 6.01035C9.51712 6.39766 9.34788 6.76593 9.05367 7.01793L6.62057 9.10345L4.21974 7.04566C3.90526 6.77587 3.72402 6.38194 3.72402 5.96773V5.92925C3.72402 5.57711 3.86388 5.23987 4.11257 4.99076C4.39354 4.7098 4.77505 4.55173 5.1723 4.55173C5.56954 4.55173 5.95105 4.7098 6.23202 4.99076L6.62057 5.37931L7.00912 4.99076C7.29009 4.7098 7.67161 4.55173 8.06885 4.55173C8.46609 4.55173 8.84761 4.7098 9.12857 4.99076C9.37726 5.23945 9.51712 5.57711 9.51712 5.92883V6.01035Z" fill="white"/>
<path d="M21.2214 8.68967C21.0311 9.34925 20.7526 9.9807 20.3831 10.5691C20.7373 10.7259 21.0757 10.9105 21.3985 11.1186C22.0569 10.411 22.5455 9.58677 22.8397 8.68967H21.2214Z" fill="white"/>
<path d="M5.37939 11.8498V13.121C5.78202 13.1975 6.19622 13.2414 6.62077 13.2414C7.04533 13.2414 7.45953 13.1975 7.86215 13.1205V11.8494C7.46284 11.9445 7.04864 12 6.62077 12C6.19291 12 5.7787 11.9445 5.37939 11.8498Z" fill="white"/>
<path d="M13.299 13.884L12.4218 13.0067C11.835 13.6709 11.3786 14.4509 11.0947 15.3107H12.4156C12.634 14.7873 12.9349 14.3081 13.299 13.884Z" fill="white"/>
<path d="M21.7522 12.4212C21.0881 11.8345 20.3081 11.3781 19.4482 11.0942V12.415C19.9713 12.6339 20.4504 12.9348 20.8746 13.2989L21.7522 12.4212Z" fill="white"/>
<path d="M20.3602 8.68967H18.7423C18.6136 9.13574 18.4402 9.56774 18.23 9.98318C18.6976 10.0366 19.1536 10.1297 19.5909 10.2658C19.9178 9.77215 20.1781 9.24415 20.3602 8.68967Z" fill="white"/>
<path d="M18.6207 12.1502V10.879C18.2181 10.8025 17.8039 10.7586 17.3793 10.7586C16.9548 10.7586 16.5406 10.8025 16.1379 10.8794V12.1506C16.5372 12.0554 16.9515 12 17.3793 12C17.8072 12 18.2214 12.0554 18.6207 12.1502Z" fill="white"/>
<path d="M18.087 7.86206C18.1644 7.45489 18.207 7.03985 18.207 6.62068C18.207 6.19613 18.1631 5.78192 18.0862 5.3793H16.4397C16.508 5.78399 16.5518 6.19696 16.5518 6.62068C16.5518 7.0411 16.5162 7.45572 16.4488 7.86206H18.087Z" fill="white"/>
<path d="M21.2189 4.55173H22.8368C22.5273 3.61366 22.0125 2.76994 21.3471 2.06897H19.9514C20.5196 2.80138 20.9545 3.63931 21.2189 4.55173Z" fill="white"/>
<path d="M4.5518 1.6564V0.335571C3.69194 0.619433 2.91235 1.07626 2.2478 1.66261L3.12504 2.53985C3.5496 2.17612 4.02877 1.8753 4.5518 1.6564Z" fill="white"/>
<path d="M13.0063 22.3374C13.6705 22.9241 14.4505 23.3805 15.3103 23.6644V22.3436C14.7873 22.1247 14.3081 21.8239 13.884 21.4597L13.0063 22.3374Z" fill="white"/>
<path d="M12.4151 19.4483H11.0942C11.3781 20.3081 11.8345 21.0877 12.4213 21.7523L13.2985 20.875C12.9348 20.4505 12.634 19.9713 12.4151 19.4483Z" fill="white"/>
<path d="M1.39159 7.86206C1.29683 7.46275 1.24138 7.04854 1.24138 6.62068C1.24138 6.19282 1.29683 5.77861 1.39159 5.3793H0.120828C0.0438621 5.78192 0 6.19613 0 6.62068C0 7.04523 0.0438621 7.45944 0.120828 7.86206H1.39159Z" fill="white"/>
<path d="M0 14.069V20.6897H10.7168C10.2186 19.6908 9.93104 18.5694 9.93104 17.3793C9.93104 16.1892 10.2186 15.0679 10.7168 14.069H0Z" fill="white"/>
<path d="M11.9999 17.3793C11.9999 16.9515 12.0554 16.5372 12.1501 16.1379H10.879C10.8024 16.5406 10.7585 16.9548 10.7585 17.3793C10.7585 17.8039 10.8024 18.2181 10.8794 18.6207H12.1505C12.0554 18.2214 11.9999 17.8072 11.9999 17.3793Z" fill="white"/>
<path d="M23.8791 16.1379H22.6079C22.7031 16.5372 22.7585 16.9515 22.7585 17.3793C22.7585 17.8072 22.7031 18.2214 22.6083 18.6207H23.8795C23.956 18.2181 23.9999 17.8039 23.9999 17.3793C23.9999 16.9548 23.956 16.5406 23.8791 16.1379Z" fill="white"/>
<path d="M21.4597 20.8746L22.337 21.7519C22.9237 21.0877 23.3801 20.3077 23.664 19.4479H22.3432C22.1247 19.9713 21.8239 20.4505 21.4597 20.8746Z" fill="white"/>
<path d="M19.4482 22.3436V23.6644C20.3081 23.3806 21.0877 22.9241 21.7522 22.3374L20.875 21.4601C20.4504 21.8239 19.9713 22.1247 19.4482 22.3436Z" fill="white"/>
<path d="M16.1379 22.6084V23.8796C16.5406 23.9561 16.9548 24 17.3793 24C17.8039 24 18.2181 23.9561 18.6207 23.8792V22.608C18.2214 22.7032 17.8072 22.7586 17.3793 22.7586C16.9515 22.7586 16.5372 22.7032 16.1379 22.6084Z" fill="white"/>
<path d="M2.54038 3.12538L1.66314 2.24814C1.07638 2.91228 0.619555 3.69186 0.335693 4.55172H1.65652C1.87542 4.02869 2.17625 3.54952 2.54038 3.12538Z" fill="white"/>
<path d="M21.5172 6.62068C21.5172 7.04068 21.4803 7.4553 21.4125 7.86206H23.0536C23.1297 7.45696 23.1723 7.04234 23.1723 6.62068C23.1723 6.19613 23.1285 5.78192 23.0515 5.3793H21.405C21.4733 5.78399 21.5172 6.19696 21.5172 6.62068Z" fill="white"/>
<path d="M20.3968 1.24137C19.5986 0.66909 18.6696 0.271849 17.6628 0.100952C18.2268 0.412952 18.7437 0.799021 19.2067 1.24137H20.3968Z" fill="white"/>
<path d="M17.3794 21.931C19.889 21.931 21.9311 19.889 21.9311 17.3793C21.9311 14.8696 19.889 12.8276 17.3794 12.8276C14.8697 12.8276 12.8276 14.8696 12.8276 17.3793C12.8276 19.889 14.8697 21.931 17.3794 21.931ZM14.7398 17.2225C14.5755 17.0578 14.4828 16.8347 14.4828 16.6018C14.4828 16.1172 14.8759 15.7241 15.3605 15.7241C15.5934 15.7241 15.8165 15.8164 15.9812 15.9811C15.8169 15.8164 15.7242 15.5934 15.7242 15.3604C15.7242 14.8759 16.1173 14.4827 16.6018 14.4827C16.8348 14.4827 17.0578 14.575 17.2225 14.7397L17.3794 14.8965L17.5362 14.7397C17.7009 14.575 17.9239 14.4827 18.1569 14.4827C18.6414 14.4827 19.0345 14.8759 19.0345 15.3604C19.0345 15.5934 18.9418 15.8164 18.7776 15.9811C18.9423 15.8164 19.1653 15.7241 19.3983 15.7241C19.8828 15.7241 20.2759 16.1172 20.2759 16.6018C20.2759 16.8347 20.1832 17.0578 20.0189 17.2225L19.8621 17.3793L20.0189 17.5361C20.1836 17.7008 20.2759 17.9239 20.2759 18.1568C20.2759 18.6414 19.8828 19.0345 19.3983 19.0345C19.1653 19.0345 18.9423 18.9418 18.7776 18.7775C18.9423 18.9422 19.0345 19.1652 19.0345 19.3982C19.0345 19.8827 18.6414 20.2759 18.1569 20.2759C17.9239 20.2759 17.7009 20.1832 17.5362 20.0189L17.3794 19.8621L17.2225 20.0189C17.0583 20.1832 16.8348 20.2759 16.6018 20.2759C16.1173 20.2759 15.7242 19.8827 15.7242 19.3982C15.7242 19.1652 15.8169 18.9422 15.9812 18.7775C15.8169 18.9418 15.5934 19.0345 15.3605 19.0345C14.8759 19.0345 14.4828 18.6414 14.4828 18.1568C14.4828 17.9239 14.5755 17.7008 14.7398 17.5361L14.8966 17.3793L14.7398 17.2225Z" fill="white"/>
<path d="M17.9139 1.24137C17.1157 0.66909 16.1867 0.271849 15.1799 0.100952C15.7439 0.412952 16.2608 0.799021 16.7238 1.24137H17.9139Z" fill="white"/>
<path d="M23.6645 15.3103C23.3806 14.4505 22.9242 13.6709 22.3374 13.0063L21.4602 13.8836C21.8243 14.3077 22.1252 14.7869 22.3441 15.3099L23.6645 15.3103Z" fill="white"/>
<path d="M10.9937 1.66261C10.3291 1.07626 9.54956 0.619433 8.6897 0.335571V1.6564C9.21273 1.8753 9.6919 2.17612 10.116 2.54026L10.9937 1.66261Z" fill="white"/>
<path d="M15.4312 1.24137C14.633 0.66909 13.704 0.271849 12.6973 0.100952C13.2613 0.412952 13.7781 0.799021 14.2411 1.24137H15.4312Z" fill="white"/>
<path d="M7.86215 1.39159V0.120828C7.45953 0.0438621 7.04533 0 6.62077 0C6.19622 0 5.78202 0.0438621 5.37939 0.120828V1.392C5.7787 1.29683 6.19291 1.24138 6.62077 1.24138C7.04864 1.24138 7.46284 1.29683 7.86215 1.39159Z" fill="white"/>
<path d="M12.9485 1.24137C12.1503 0.66909 11.2214 0.271849 10.2146 0.100952C10.7786 0.412952 11.2954 0.799021 11.7585 1.24137H12.9485Z" fill="white"/>
</g>
<defs>
<clipPath id="clip0_763_1251">
<rect width="24" height="24" fill="white"/>
</clipPath>
</defs>
</svg>
