<svg width="24" height="24" viewBox="0 0 24 24" fill="none" xmlns="http://www.w3.org/2000/svg">
<path d="M16.7499 4.36C18.7699 6.56 18.7699 9.61 16.7499 11.63L15.0699 9.94C15.9099 8.76 15.9099 7.23 15.0699 6.05L16.7499 4.36ZM20.0599 1C23.9999 5.05 23.9599 11.11 20.0599 15L18.4299 13.37C21.1999 10.19 21.1999 5.65 18.4299 2.63L20.0599 1ZM8.9999 4C11.1999 4 12.9999 5.79 12.9999 8C12.9999 10.21 11.1999 12 8.9999 12C6.7999 12 4.9999 10.21 4.9999 8C4.9999 5.79 6.7899 4 8.9999 4ZM12.9999 14.54C12.9999 15.6 12.7099 18.07 10.7999 20.83L9.9999 16L10.9299 14.12C10.3099 14.05 9.6599 14 8.9999 14C8.3399 14 7.6699 14.05 7.0499 14.12L7.9999 16L7.1799 20.83C5.2699 18.07 4.9999 15.6 4.9999 14.54C2.5999 15.24 0.993896 16.5 0.993896 18V22H16.9999V18C16.9999 16.5 15.3899 15.24 12.9999 14.54Z" fill="white"/>
</svg>
