<svg width="24" height="24" viewBox="0 0 24 24" fill="none" xmlns="http://www.w3.org/2000/svg">
<path d="M20.1529 23.1177H18.8117L16.4823 20.0824C19.4117 18.4941 21.4234 15.3882 21.4234 11.8235C21.4234 7.55295 18.494 3.84707 14.4705 2.78825V1.65884C14.4705 0.847071 13.7999 0.176483 12.9881 0.176483H11.1881C10.3764 0.176483 9.7058 0.847071 9.7058 1.65884V2.75295C5.68227 3.74119 2.64697 7.48237 2.64697 11.8235C2.64697 15.3882 4.65874 18.5294 7.62344 20.0824L5.29403 23.1177H3.91756C3.7058 23.1177 3.56462 23.2588 3.56462 23.4706C3.56462 23.6824 3.7058 23.8235 3.91756 23.8235H20.1882C20.3999 23.8235 20.5411 23.6824 20.5411 23.4706C20.5411 23.2588 20.3293 23.1177 20.1529 23.1177ZM10.3764 1.65884C10.3764 1.23531 10.7293 0.882366 11.1529 0.882366H12.9529C13.3764 0.882366 13.7293 1.23531 13.7293 1.65884V2.61178C13.5176 2.57648 13.3058 2.54119 13.094 2.50589C13.094 2.43531 13.094 2.36472 13.094 2.32942C13.094 1.76472 12.6352 1.2706 12.0352 1.2706C11.4352 1.2706 10.9764 1.76472 10.9764 2.32942V2.50589C10.7646 2.54119 10.5529 2.54119 10.3411 2.57648V1.65884H10.3764ZM5.61168 14.0824L9.74109 12.8824C9.81168 13.0588 9.91756 13.2353 10.0587 13.3765L7.09403 16.4824C6.42344 15.7765 5.92933 14.9647 5.61168 14.0824ZM13.694 11.7177C13.7646 12.7765 12.9176 13.5882 11.9293 13.5882C10.9411 13.5882 10.1646 12.6353 10.1999 11.7882C10.2352 11.0118 10.8352 10.1647 11.8587 10.0941C12.7411 9.98825 13.6587 10.7294 13.694 11.7177ZM6.84697 7.41178L9.95286 10.4118C9.84697 10.5882 9.74109 10.7294 9.6705 10.9412L5.5058 9.88237C5.78815 8.96472 6.24697 8.11766 6.84697 7.41178ZM11.7881 14.2941H11.9646C12.1058 14.2941 12.2117 14.2941 12.3529 14.2588C13.5881 18.4588 13.5176 18.3177 13.5529 18.4235C12.6352 18.6353 11.6823 18.6706 10.7293 18.4941C11.4352 15.6706 10.6587 18.8118 11.7881 14.2941ZM17.1176 16.2353L13.9764 13.2353C14.0823 13.0941 14.1529 12.9177 14.2587 12.7412L18.494 13.7647C18.2117 14.6824 17.7529 15.5294 17.1176 16.2353ZM14.1881 10.8353C14.1176 10.6588 14.0117 10.4824 13.9058 10.3412L16.9411 7.16472C17.5764 7.8706 18.1058 8.68237 18.3881 9.56472L14.1881 10.8353ZM12.247 9.38825C12.1058 9.38825 11.9293 9.38825 11.7881 9.38825L10.5529 5.18825C10.8705 5.11766 11.2234 5.04707 11.5411 5.04707C11.6117 5.36472 11.6823 5.61178 11.7176 5.75295C11.7529 5.92942 11.894 6.03531 12.0705 6.03531C12.247 6.03531 12.3881 5.92942 12.4234 5.75295C12.4587 5.61178 12.5293 5.36472 12.5999 5.04707C12.847 5.08237 13.094 5.08237 13.3411 5.15295L12.247 9.38825ZM3.31756 11.8235C3.31756 7.34119 6.84697 3.56472 11.1176 3.21178C11.1881 3.56472 11.294 3.98825 11.3646 4.37648C7.19991 4.76472 4.41168 8.25884 4.48227 12.0353C4.58815 16.0588 7.8705 19.3412 11.9646 19.3412C16.2352 19.3412 19.4117 15.8118 19.447 11.8941C19.447 8.11766 16.5529 4.69413 12.7058 4.41178C12.8117 4.02354 12.8823 3.63531 12.9529 3.28237C17.1529 3.7059 20.647 7.41178 20.647 11.8941C20.647 16.6941 16.7293 20.5765 11.9646 20.5765C7.23521 20.5059 3.31756 16.6235 3.31756 11.8235Z" fill="white"/>
</svg>
