<svg width="24" height="24" viewBox="0 0 24 24" fill="none" xmlns="http://www.w3.org/2000/svg">
<path d="M20.4578 18.9305H3.53908C2.77021 18.9305 2.14697 19.5537 2.14697 20.3226C2.14697 21.0914 2.77021 21.7147 3.53908 21.7147H20.4578C21.2267 21.7147 21.8499 21.0914 21.8499 20.3226C21.8499 19.5537 21.2267 18.9305 20.4578 18.9305Z" fill="white"/>
<path d="M11.7742 4.91806C11.7863 4.92032 11.7976 4.92183 11.8097 4.92334C11.8716 4.93239 11.9342 4.93843 11.9983 4.93843C12.0625 4.93843 12.1251 4.93239 12.187 4.92334C12.199 4.92183 12.2111 4.92032 12.2224 4.91806C12.2843 4.9075 12.3454 4.89316 12.4043 4.8743C12.9385 4.70302 13.3248 4.20277 13.3248 3.61122C13.3248 2.87857 12.731 2.28476 11.9983 2.28476C11.2657 2.28476 10.6719 2.87857 10.6719 3.61122C10.6719 4.2669 11.1487 4.81092 11.7742 4.9173V4.91806Z" fill="white"/>
<path d="M1.35589 9.96359C1.40342 9.96284 1.44945 9.95906 1.49547 9.95303C1.49698 9.95303 1.49774 9.95303 1.49925 9.95303C1.54452 9.94699 1.58828 9.93869 1.63204 9.92888C1.6328 9.92888 1.63431 9.92888 1.63506 9.92888C1.67882 9.91832 1.72183 9.90549 1.76408 9.89116C2.28169 9.71007 2.65292 9.21887 2.65292 8.64015C2.65292 7.9075 2.0591 7.31369 1.32646 7.31369C0.593813 7.31369 0 7.90524 0 8.63789C0 9.37053 0.593813 9.96434 1.32646 9.96434C1.33627 9.96434 1.34532 9.96284 1.35513 9.96284L1.35589 9.96359Z" fill="white"/>
<path d="M22.6734 7.3113C21.9407 7.3113 21.3469 7.90511 21.3469 8.63776C21.3469 9.16895 21.6601 9.62619 22.1113 9.83821C22.1512 9.85708 22.1927 9.87443 22.2358 9.88877C22.2358 9.88877 22.2365 9.88877 22.2373 9.88877C22.2788 9.9031 22.3218 9.91593 22.3655 9.92649C22.367 9.92649 22.3678 9.92649 22.3693 9.92725C22.4131 9.93781 22.4568 9.94536 22.5013 9.95139C22.5029 9.95139 22.5036 9.95139 22.5051 9.95139C22.5511 9.95743 22.5979 9.96045 22.6447 9.96196C22.6545 9.96196 22.6636 9.96346 22.6734 9.96346C23.406 9.96346 23.9998 9.36965 23.9998 8.63701C23.9998 7.90436 23.406 7.31055 22.6734 7.31055V7.3113Z" fill="white"/>
<path d="M18.0853 13.0208C15.6014 13.0208 13.4661 9.91136 12.5207 5.45663C12.3547 5.50342 12.1796 5.53058 11.9985 5.53058C11.8174 5.53058 11.6424 5.50342 11.4764 5.45663C10.5302 9.91212 8.39566 13.0208 5.91175 13.0208C4.50607 13.0208 3.21356 12.0218 2.18363 10.3513C1.94369 10.472 1.67508 10.5437 1.39062 10.5535C1.59435 13.3226 2.27946 15.8774 3.3192 18.0301H20.6778C21.7176 15.8774 22.4027 13.3233 22.6064 10.5535C22.322 10.5437 22.0533 10.4727 21.8127 10.3513C20.7827 12.0225 19.4902 13.0208 18.0845 13.0208H18.0853Z" fill="white"/>
<path d="M1.35589 9.96359C1.40342 9.96284 1.44945 9.95906 1.49547 9.95303C1.49698 9.95303 1.49774 9.95303 1.49925 9.95303C1.54452 9.94699 1.58828 9.93869 1.63204 9.92888C1.6328 9.92888 1.63431 9.92888 1.63506 9.92888C1.67882 9.91832 1.72183 9.90549 1.76408 9.89116C2.28169 9.71007 2.65292 9.21887 2.65292 8.64015C2.65292 7.9075 2.0591 7.31369 1.32646 7.31369C0.593813 7.31369 0 7.90524 0 8.63789C0 9.37053 0.593813 9.96434 1.32646 9.96434C1.33627 9.96434 1.34532 9.96284 1.35513 9.96284L1.35589 9.96359Z" fill="white"/>
<path d="M22.6734 7.3113C21.9407 7.3113 21.3469 7.90511 21.3469 8.63776C21.3469 9.16895 21.6601 9.62619 22.1113 9.83821C22.1512 9.85708 22.1927 9.87443 22.2358 9.88877C22.2358 9.88877 22.2365 9.88877 22.2373 9.88877C22.2788 9.9031 22.3218 9.91593 22.3655 9.92649C22.367 9.92649 22.3678 9.92649 22.3693 9.92725C22.4131 9.93781 22.4568 9.94536 22.5013 9.95139C22.5029 9.95139 22.5036 9.95139 22.5051 9.95139C22.5511 9.95743 22.5979 9.96045 22.6447 9.96196C22.6545 9.96196 22.6636 9.96346 22.6734 9.96346C23.406 9.96346 23.9998 9.36965 23.9998 8.63701C23.9998 7.90436 23.406 7.31055 22.6734 7.31055V7.3113Z" fill="white"/>
<path d="M20.6801 18.0293C21.7198 15.8766 22.4049 13.3225 22.6087 10.5527C22.3242 10.5429 22.0556 10.4719 21.8149 10.3505C20.785 12.0217 19.4925 13.02 18.0868 13.02C15.6029 13.02 13.4676 9.91057 12.5221 5.45584C12.3561 5.50262 12.1811 5.52978 12 5.52978V18.0285H20.6793L20.6801 18.0293Z" fill="white"/>
<path d="M12.1886 4.9241C12.2007 4.9226 12.2128 4.92109 12.2241 4.91882C12.286 4.90826 12.3471 4.89392 12.4059 4.87506C12.9401 4.70378 13.3265 4.20353 13.3265 3.61198C13.3265 2.87934 12.7326 2.28552 12 2.28552V4.93844C12.0641 4.93844 12.1268 4.9324 12.1886 4.92335V4.9241Z" fill="white"/>
<path d="M16.746 9.0115C16.7543 9.01301 16.7626 9.01377 16.7701 9.01528C16.8124 9.02131 16.8554 9.02584 16.8999 9.02584C16.9444 9.02584 16.9867 9.02131 17.029 9.01528C17.0373 9.01377 17.0456 9.01301 17.0539 9.0115C17.0961 9.00396 17.1384 8.9949 17.1783 8.98208C17.5443 8.86437 17.8091 8.52181 17.8091 8.11663C17.8091 7.61412 17.4017 7.20743 16.8999 7.20743C16.3982 7.20743 15.9907 7.61487 15.9907 8.11663C15.9907 8.56633 16.3174 8.93831 16.746 9.01226V9.0115Z" fill="white"/>
<path d="M6.94595 9.0115C6.95425 9.01301 6.96255 9.01377 6.9701 9.01528C7.01235 9.02131 7.05536 9.02584 7.09988 9.02584C7.1444 9.02584 7.18665 9.02131 7.2289 9.01528C7.2372 9.01377 7.2455 9.01301 7.2538 9.0115C7.29606 9.00396 7.33755 8.9949 7.3783 8.98208C7.74424 8.86437 8.00908 8.52181 8.00908 8.11663C8.00908 7.61412 7.60239 7.20743 7.09988 7.20743C6.59736 7.20743 6.19067 7.61487 6.19067 8.11663C6.19067 8.56633 6.51738 8.93831 6.94595 9.01226V9.0115Z" fill="white"/>
<path d="M8.06577 11.4169C7.8213 10.8027 7.61456 10.1199 7.45762 9.38046C7.34368 9.41291 7.22371 9.43102 7.09997 9.43102C6.97623 9.43102 6.85626 9.41291 6.74233 9.38046C6.49258 10.5568 6.12135 11.5958 5.6626 12.4288C5.74937 12.4378 5.83312 12.4438 5.91235 12.4438C6.65556 12.4438 7.38896 12.0787 8.06577 11.4177V11.4169Z" fill="white"/>
<path d="M18.3375 12.4295C17.8787 11.5958 17.5075 10.5568 17.2578 9.38046C17.1438 9.41291 17.0239 9.43102 16.9001 9.43102C16.7764 9.43102 16.6564 9.41291 16.5425 9.38046C16.3855 10.1199 16.1788 10.8027 15.9343 11.4177C16.6111 12.0787 17.3445 12.4438 18.0877 12.4438C18.1723 12.4438 18.256 12.4386 18.3383 12.4303L18.3375 12.4295Z" fill="white"/>
</svg>
